<?xml version="1.0" encoding="UTF-8" standalone="no"?>
<!DOCTYPE svg PUBLIC "-//W3C//DTD SVG 1.1//EN"
 "http://www.w3.org/Graphics/SVG/1.1/DTD/svg11.dtd">
<!-- Generated by graphviz version 2.26.3 (20100126.1600)
 -->
<!-- Title: Leak_DefinitelyLost Pages: 1 -->
<svg width="4994pt" height="234pt"
 viewBox="0.00 0.00 4994.00 234.00" xmlns="http://www.w3.org/2000/svg" xmlns:xlink="http://www.w3.org/1999/xlink">
<g id="graph1" class="graph" transform="scale(1 1) rotate(0) translate(4 230)">
<title>Leak_DefinitelyLost</title>
<polygon fill="white" stroke="white" points="-4,5 -4,-230 4991,-230 4991,5 -4,5"/>
<!-- ROOT -->
<g id="node1" class="node"><title>ROOT</title>
<ellipse fill="none" stroke="black" cx="41" cy="-102" rx="41.0122" ry="18.3848"/>
<text text-anchor="middle" x="41" y="-98.4" font-family="Times Roman,serif" font-size="14.00">ROOT</text>
</g>
<!-- operator new(unsigned int) -->
<g id="node2" class="node"><title>operator new(unsigned int)</title>
<ellipse fill="none" stroke="black" cx="302" cy="-134" rx="145.163" ry="18.3848"/>
<text text-anchor="middle" x="302" y="-130.4" font-family="Times Roman,serif" font-size="14.00">operator new(unsigned int)</text>
</g>
<!-- ROOT&#45;&gt;operator new(unsigned int) -->
<g id="edge2" class="edge"><title>ROOT&#45;&gt;operator new(unsigned int)</title>
<path fill="none" stroke="black" d="M80.6403,-106.86C109.374,-110.383 149.776,-115.336 188.211,-120.049"/>
<polygon fill="black" stroke="black" points="188.106,-123.562 198.458,-121.305 188.958,-116.614 188.106,-123.562"/>
<text text-anchor="middle" x="119" y="-118.4" font-family="Times Roman,serif" font-size="14.00">2162</text>
</g>
<!-- malloc -->
<g id="node9" class="node"><title>malloc</title>
<ellipse fill="none" stroke="black" cx="302" cy="-64" rx="41.9273" ry="18.3848"/>
<text text-anchor="middle" x="302" y="-60.4" font-family="Times Roman,serif" font-size="14.00">malloc</text>
</g>
<!-- ROOT&#45;&gt;malloc -->
<g id="edge16" class="edge"><title>ROOT&#45;&gt;malloc</title>
<path fill="none" stroke="black" d="M75.7693,-92.3276C83.6894,-90.3572 92.0991,-88.4473 100,-87 150.569,-77.7369 208.987,-71.5689 249.951,-67.9727"/>
<polygon fill="black" stroke="black" points="250.309,-71.4549 259.974,-67.1135 249.711,-64.4805 250.309,-71.4549"/>
<text text-anchor="middle" x="119" y="-92.4" font-family="Times Roman,serif" font-size="14.00">205</text>
</g>
<!-- &lt;undefined 2&gt; -->
<g id="node3" class="node"><title>&lt;undefined 2&gt;</title>
<ellipse fill="none" stroke="black" cx="640" cy="-208" rx="85.7684" ry="18.3848"/>
<text text-anchor="middle" x="640" y="-204.4" font-family="Times Roman,serif" font-size="14.00">&lt;undefined 2&gt;</text>
</g>
<!-- operator new(unsigned int)&#45;&gt;&lt;undefined 2&gt; -->
<g id="edge4" class="edge"><title>operator new(unsigned int)&#45;&gt;&lt;undefined 2&gt;</title>
<path fill="none" stroke="black" d="M373.681,-149.693C431.631,-162.381 512.739,-180.138 570.184,-192.715"/>
<polygon fill="black" stroke="black" points="569.748,-196.202 580.266,-194.922 571.245,-189.364 569.748,-196.202"/>
<text text-anchor="middle" x="485" y="-182.4" font-family="Times Roman,serif" font-size="14.00">41</text>
</g>
<!-- &lt;undefined 8&gt; -->
<g id="node22" class="node"><title>&lt;undefined 8&gt;</title>
<ellipse fill="none" stroke="black" cx="640" cy="-154" rx="85.7684" ry="18.3848"/>
<text text-anchor="middle" x="640" y="-150.4" font-family="Times Roman,serif" font-size="14.00">&lt;undefined 8&gt;</text>
</g>
<!-- operator new(unsigned int)&#45;&gt;&lt;undefined 8&gt; -->
<g id="edge44" class="edge"><title>operator new(unsigned int)&#45;&gt;&lt;undefined 8&gt;</title>
<path fill="none" stroke="black" d="M433.647,-141.79C471.269,-144.016 511.491,-146.396 546.338,-148.458"/>
<polygon fill="black" stroke="black" points="546.304,-151.962 556.493,-149.059 546.718,-144.974 546.304,-151.962"/>
<text text-anchor="middle" x="485" y="-150.4" font-family="Times Roman,serif" font-size="14.00">186</text>
</g>
<!-- UltraScanInfo::Init(std::vector, scan_lists*, styp.. -->
<g id="node25" class="node"><title>UltraScanInfo::Init(std::vector, scan_lists*, styp..</title>
<ellipse fill="none" stroke="black" cx="1024" cy="-108" rx="246.987" ry="18.3848"/>
<text text-anchor="middle" x="1024" y="-104.4" font-family="Times Roman,serif" font-size="14.00">UltraScanInfo::Init(std::vector, scan_lists*, styp..</text>
</g>
<!-- operator new(unsigned int)&#45;&gt;UltraScanInfo::Init(std::vector, scan_lists*, styp.. -->
<g id="edge52" class="edge"><title>operator new(unsigned int)&#45;&gt;UltraScanInfo::Init(std::vector, scan_lists*, styp..</title>
<path fill="none" stroke="black" d="M425.094,-124.352C438.888,-123.461 452.741,-122.651 466,-122 565.674,-117.106 675.452,-113.884 771.075,-111.78"/>
<polygon fill="black" stroke="black" points="771.252,-115.278 781.173,-111.561 771.1,-108.279 771.252,-115.278"/>
<text text-anchor="middle" x="485" y="-127.4" font-family="Times Roman,serif" font-size="14.00">1935</text>
</g>
<!-- &lt;undefined 3&gt; -->
<g id="node4" class="node"><title>&lt;undefined 3&gt;</title>
<ellipse fill="none" stroke="black" cx="1645" cy="-208" rx="85.7684" ry="18.3848"/>
<text text-anchor="middle" x="1645" y="-204.4" font-family="Times Roman,serif" font-size="14.00">&lt;undefined 3&gt;</text>
</g>
<!-- &lt;undefined 2&gt;&#45;&gt;&lt;undefined 3&gt; -->
<g id="edge6" class="edge"><title>&lt;undefined 2&gt;&#45;&gt;&lt;undefined 3&gt;</title>
<path fill="none" stroke="black" d="M726.556,-208C913.19,-208 1352.39,-208 1548.03,-208"/>
<polygon fill="black" stroke="black" points="1548.3,-211.5 1558.3,-208 1548.3,-204.5 1548.3,-211.5"/>
<text text-anchor="middle" x="1024" y="-213.4" font-family="Times Roman,serif" font-size="14.00">41</text>
</g>
<!-- nmap_mass_rdns(Target**, int) -->
<g id="node5" class="node"><title>nmap_mass_rdns(Target**, int)</title>
<ellipse fill="none" stroke="black" cx="2256" cy="-184" rx="162.842" ry="18.3848"/>
<text text-anchor="middle" x="2256" y="-180.4" font-family="Times Roman,serif" font-size="14.00">nmap_mass_rdns(Target**, int)</text>
</g>
<!-- &lt;undefined 3&gt;&#45;&gt;nmap_mass_rdns(Target**, int) -->
<g id="edge8" class="edge"><title>&lt;undefined 3&gt;&#45;&gt;nmap_mass_rdns(Target**, int)</title>
<path fill="none" stroke="black" d="M1730.28,-204.65C1823.55,-200.987 1975.27,-195.027 2091.8,-190.45"/>
<polygon fill="black" stroke="black" points="2092.05,-193.943 2101.9,-190.053 2091.77,-186.948 2092.05,-193.943"/>
<text text-anchor="middle" x="1843" y="-208.4" font-family="Times Roman,serif" font-size="14.00">41</text>
</g>
<!-- nexthost(HostGroupState*, TargetGroup*, scan_lists.. -->
<g id="node6" class="node"><title>nexthost(HostGroupState*, TargetGroup*, scan_lists..</title>
<ellipse fill="none" stroke="black" cx="2851" cy="-164" rx="275.065" ry="18.3848"/>
<text text-anchor="middle" x="2851" y="-160.4" font-family="Times Roman,serif" font-size="14.00">nexthost(HostGroupState*, TargetGroup*, scan_lists..</text>
</g>
<!-- nmap_mass_rdns(Target**, int)&#45;&gt;nexthost(HostGroupState*, TargetGroup*, scan_lists.. -->
<g id="edge10" class="edge"><title>nmap_mass_rdns(Target**, int)&#45;&gt;nexthost(HostGroupState*, TargetGroup*, scan_lists..</title>
<path fill="none" stroke="black" d="M2412.72,-178.732C2468.82,-176.847 2533.59,-174.669 2595.85,-172.577"/>
<polygon fill="black" stroke="black" points="2596.34,-176.062 2606.22,-172.228 2596.1,-169.066 2596.34,-176.062"/>
<text text-anchor="middle" x="2544" y="-179.4" font-family="Times Roman,serif" font-size="14.00">227</text>
</g>
<!-- nmap_main(int, char**) -->
<g id="node7" class="node"><title>nmap_main(int, char**)</title>
<ellipse fill="none" stroke="black" cx="3317" cy="-110" rx="126.072" ry="18.3848"/>
<text text-anchor="middle" x="3317" y="-106.4" font-family="Times Roman,serif" font-size="14.00">nmap_main(int, char**)</text>
</g>
<!-- nexthost(HostGroupState*, TargetGroup*, scan_lists..&#45;&gt;nmap_main(int, char**) -->
<g id="edge12" class="edge"><title>nexthost(HostGroupState*, TargetGroup*, scan_lists..&#45;&gt;nmap_main(int, char**)</title>
<path fill="none" stroke="black" d="M2986.41,-148.308C3057.09,-140.119 3142.38,-130.235 3208.63,-122.558"/>
<polygon fill="black" stroke="black" points="3209.15,-126.021 3218.68,-121.394 3208.34,-119.068 3209.15,-126.021"/>
<text text-anchor="middle" x="3158" y="-134.4" font-family="Times Roman,serif" font-size="14.00">447</text>
</g>
<!-- main -->
<g id="node8" class="node"><title>main</title>
<ellipse fill="lightblue" stroke="lightblue" cx="3717" cy="-110" rx="34.8574" ry="18.3848"/>
<text text-anchor="middle" x="3717" y="-106.4" font-family="Times Roman,serif" font-size="14.00">main</text>
</g>
<!-- nmap_main(int, char**)&#45;&gt;main -->
<g id="edge14" class="edge"><title>nmap_main(int, char**)&#45;&gt;main</title>
<path fill="none" stroke="black" d="M3443.56,-110C3521.19,-110 3615.95,-110 3671.09,-110"/>
<polygon fill="black" stroke="black" points="3671.24,-113.5 3681.24,-110 3671.24,-106.5 3671.24,-113.5"/>
<text text-anchor="middle" x="3481" y="-115.4" font-family="Times Roman,serif" font-size="14.00">2207</text>
</g>
<!-- safe_malloc -->
<g id="node10" class="node"><title>safe_malloc</title>
<ellipse fill="none" stroke="black" cx="1024" cy="-64" rx="67.1751" ry="18.3848"/>
<text text-anchor="middle" x="1024" y="-60.4" font-family="Times Roman,serif" font-size="14.00">safe_malloc</text>
</g>
<!-- malloc&#45;&gt;safe_malloc -->
<g id="edge18" class="edge"><title>malloc&#45;&gt;safe_malloc</title>
<path fill="none" stroke="black" d="M344.735,-64C462.815,-64 794.806,-64 946.561,-64"/>
<polygon fill="black" stroke="black" points="946.731,-67.5001 956.731,-64 946.731,-60.5001 946.731,-67.5001"/>
<text text-anchor="middle" x="485" y="-69.4" font-family="Times Roman,serif" font-size="14.00">45</text>
</g>
<!-- nss_parse_service_list -->
<g id="node11" class="node"><title>nss_parse_service_list</title>
<ellipse fill="none" stroke="black" cx="640" cy="-18" rx="118.087" ry="18.3848"/>
<text text-anchor="middle" x="640" y="-14.4" font-family="Times Roman,serif" font-size="14.00">nss_parse_service_list</text>
</g>
<!-- malloc&#45;&gt;nss_parse_service_list -->
<g id="edge22" class="edge"><title>malloc&#45;&gt;nss_parse_service_list</title>
<path fill="none" stroke="black" d="M336.474,-53.405C369.39,-43.8128 420.564,-30.2571 466,-24 480.738,-21.9704 496.241,-20.4995 511.669,-19.4474"/>
<polygon fill="black" stroke="black" points="512.026,-22.932 521.788,-18.8148 511.589,-15.9456 512.026,-22.932"/>
<text text-anchor="middle" x="485" y="-29.4" font-family="Times Roman,serif" font-size="14.00">160</text>
</g>
<!-- safe_malloc&#45;&gt;nmap_main(int, char**) -->
<g id="edge20" class="edge"><title>safe_malloc&#45;&gt;nmap_main(int, char**)</title>
<path fill="none" stroke="black" d="M1091.08,-64C1204.96,-64 1443.39,-64 1645,-64 1645,-64 1645,-64 2851,-64 2980.03,-64 3128.19,-81.6817 3222.16,-95.1202"/>
<polygon fill="black" stroke="black" points="3221.82,-98.6067 3232.21,-96.5712 3222.82,-91.6785 3221.82,-98.6067"/>
<text text-anchor="middle" x="1968" y="-69.4" font-family="Times Roman,serif" font-size="14.00">45</text>
</g>
<!-- __nss_database_lookup -->
<g id="node12" class="node"><title>__nss_database_lookup</title>
<ellipse fill="none" stroke="black" cx="1415" cy="-18" rx="123.951" ry="18.3848"/>
<text text-anchor="middle" x="1415" y="-14.4" font-family="Times Roman,serif" font-size="14.00">__nss_database_lookup</text>
</g>
<!-- nss_parse_service_list&#45;&gt;__nss_database_lookup -->
<g id="edge24" class="edge"><title>nss_parse_service_list&#45;&gt;__nss_database_lookup</title>
<path fill="none" stroke="black" d="M758.127,-18C898.651,-18 1132.72,-18 1280.19,-18"/>
<polygon fill="black" stroke="black" points="1280.22,-21.5001 1290.22,-18 1280.22,-14.5001 1280.22,-21.5001"/>
<text text-anchor="middle" x="1024" y="-23.4" font-family="Times Roman,serif" font-size="14.00">160</text>
</g>
<!-- &lt;undefined 4&gt; -->
<g id="node13" class="node"><title>&lt;undefined 4&gt;</title>
<ellipse fill="none" stroke="black" cx="1843" cy="-18" rx="85.7684" ry="18.3848"/>
<text text-anchor="middle" x="1843" y="-14.4" font-family="Times Roman,serif" font-size="14.00">&lt;undefined 4&gt;</text>
</g>
<!-- __nss_database_lookup&#45;&gt;&lt;undefined 4&gt; -->
<g id="edge26" class="edge"><title>__nss_database_lookup&#45;&gt;&lt;undefined 4&gt;</title>
<path fill="none" stroke="black" d="M1539.66,-18C1605.58,-18 1685.29,-18 1746.45,-18"/>
<polygon fill="black" stroke="black" points="1746.49,-21.5001 1756.49,-18 1746.49,-14.5001 1746.49,-21.5001"/>
<text text-anchor="middle" x="1645" y="-23.4" font-family="Times Roman,serif" font-size="14.00">160</text>
</g>
<!-- &lt;undefined 5&gt; -->
<g id="node14" class="node"><title>&lt;undefined 5&gt;</title>
<ellipse fill="none" stroke="black" cx="2256" cy="-18" rx="85.7684" ry="18.3848"/>
<text text-anchor="middle" x="2256" y="-14.4" font-family="Times Roman,serif" font-size="14.00">&lt;undefined 5&gt;</text>
</g>
<!-- &lt;undefined 4&gt;&#45;&gt;&lt;undefined 5&gt; -->
<g id="edge28" class="edge"><title>&lt;undefined 4&gt;&#45;&gt;&lt;undefined 5&gt;</title>
<path fill="none" stroke="black" d="M1929.58,-18C1996.65,-18 2089.55,-18 2159.09,-18"/>
<polygon fill="black" stroke="black" points="2159.18,-21.5001 2169.18,-18 2159.18,-14.5001 2159.18,-21.5001"/>
<text text-anchor="middle" x="1968" y="-23.4" font-family="Times Roman,serif" font-size="14.00">160</text>
</g>
<!-- getpwuid_r@@GLIBC_2.1.2 -->
<g id="node15" class="node"><title>getpwuid_r@@GLIBC_2.1.2</title>
<ellipse fill="none" stroke="black" cx="2851" cy="-18" rx="147.992" ry="18.3848"/>
<text text-anchor="middle" x="2851" y="-14.4" font-family="Times Roman,serif" font-size="14.00">getpwuid_r@@GLIBC_2.1.2</text>
</g>
<!-- &lt;undefined 5&gt;&#45;&gt;getpwuid_r@@GLIBC_2.1.2 -->
<g id="edge30" class="edge"><title>&lt;undefined 5&gt;&#45;&gt;getpwuid_r@@GLIBC_2.1.2</title>
<path fill="none" stroke="black" d="M2342.52,-18C2433.95,-18 2580.17,-18 2692.39,-18"/>
<polygon fill="black" stroke="black" points="2692.45,-21.5001 2702.45,-18 2692.45,-14.5001 2692.45,-21.5001"/>
<text text-anchor="middle" x="2544" y="-23.4" font-family="Times Roman,serif" font-size="14.00">160</text>
</g>
<!-- getpwuid -->
<g id="node16" class="node"><title>getpwuid</title>
<ellipse fill="none" stroke="black" cx="3317" cy="-18" rx="56.7776" ry="18.3848"/>
<text text-anchor="middle" x="3317" y="-14.4" font-family="Times Roman,serif" font-size="14.00">getpwuid</text>
</g>
<!-- getpwuid_r@@GLIBC_2.1.2&#45;&gt;getpwuid -->
<g id="edge32" class="edge"><title>getpwuid_r@@GLIBC_2.1.2&#45;&gt;getpwuid</title>
<path fill="none" stroke="black" d="M2999.73,-18C3083.54,-18 3184.17,-18 3249.29,-18"/>
<polygon fill="black" stroke="black" points="3249.43,-21.5001 3259.43,-18 3249.43,-14.5001 3249.43,-21.5001"/>
<text text-anchor="middle" x="3158" y="-23.4" font-family="Times Roman,serif" font-size="14.00">160</text>
</g>
<!-- nmap_fetchfile(char*, int, char const*) -->
<g id="node17" class="node"><title>nmap_fetchfile(char*, int, char const*)</title>
<ellipse fill="none" stroke="black" cx="3717" cy="-18" rx="198.197" ry="18.3848"/>
<text text-anchor="middle" x="3717" y="-14.4" font-family="Times Roman,serif" font-size="14.00">nmap_fetchfile(char*, int, char const*)</text>
</g>
<!-- getpwuid&#45;&gt;nmap_fetchfile(char*, int, char const*) -->
<g id="edge34" class="edge"><title>getpwuid&#45;&gt;nmap_fetchfile(char*, int, char const*)</title>
<path fill="none" stroke="black" d="M3374.74,-18C3410.56,-18 3459.02,-18 3508.18,-18"/>
<polygon fill="black" stroke="black" points="3508.35,-21.5001 3518.35,-18 3508.35,-14.5001 3508.35,-21.5001"/>
<text text-anchor="middle" x="3481" y="-23.4" font-family="Times Roman,serif" font-size="14.00">160</text>
</g>
<!-- NmapOps::Initialize() -->
<g id="node18" class="node"><title>NmapOps::Initialize()</title>
<ellipse fill="none" stroke="black" cx="4094" cy="-18" rx="113.844" ry="18.3848"/>
<text text-anchor="middle" x="4094" y="-14.4" font-family="Times Roman,serif" font-size="14.00">NmapOps::Initialize()</text>
</g>
<!-- nmap_fetchfile(char*, int, char const*)&#45;&gt;NmapOps::Initialize() -->
<g id="edge36" class="edge"><title>nmap_fetchfile(char*, int, char const*)&#45;&gt;NmapOps::Initialize()</title>
<path fill="none" stroke="black" d="M3915.71,-18C3934.08,-18 3952.32,-18 3969.73,-18"/>
<polygon fill="black" stroke="black" points="3969.87,-21.5001 3979.87,-18 3969.87,-14.5001 3969.87,-21.5001"/>
<text text-anchor="middle" x="3948" y="-23.4" font-family="Times Roman,serif" font-size="14.00">160</text>
</g>
<!-- NmapOps::NmapOps() -->
<g id="node19" class="node"><title>NmapOps::NmapOps()</title>
<ellipse fill="none" stroke="black" cx="4391" cy="-18" rx="118.794" ry="18.3848"/>
<text text-anchor="middle" x="4391" y="-14.4" font-family="Times Roman,serif" font-size="14.00">NmapOps::NmapOps()</text>
</g>
<!-- NmapOps::Initialize()&#45;&gt;NmapOps::NmapOps() -->
<g id="edge38" class="edge"><title>NmapOps::Initialize()&#45;&gt;NmapOps::NmapOps()</title>
<path fill="none" stroke="black" d="M4208.4,-18C4225.75,-18 4243.76,-18 4261.4,-18"/>
<polygon fill="black" stroke="black" points="4261.74,-21.5001 4271.74,-18 4261.74,-14.5001 4261.74,-21.5001"/>
<text text-anchor="middle" x="4240" y="-23.4" font-family="Times Roman,serif" font-size="14.00">160</text>
</g>
<!-- &lt;undefined 6&gt; -->
<g id="node20" class="node"><title>&lt;undefined 6&gt;</title>
<ellipse fill="none" stroke="black" cx="4661" cy="-18" rx="85.7684" ry="18.3848"/>
<text text-anchor="middle" x="4661" y="-14.4" font-family="Times Roman,serif" font-size="14.00">&lt;undefined 6&gt;</text>
</g>
<!-- NmapOps::NmapOps()&#45;&gt;&lt;undefined 6&gt; -->
<g id="edge40" class="edge"><title>NmapOps::NmapOps()&#45;&gt;&lt;undefined 6&gt;</title>
<path fill="none" stroke="black" d="M4510.21,-18C4528.28,-18 4546.73,-18 4564.24,-18"/>
<polygon fill="black" stroke="black" points="4564.44,-21.5001 4574.44,-18 4564.44,-14.5001 4564.44,-21.5001"/>
<text text-anchor="middle" x="4542" y="-23.4" font-family="Times Roman,serif" font-size="14.00">160</text>
</g>
<!-- &lt;undefined 7&gt; -->
<g id="node21" class="node"><title>&lt;undefined 7&gt;</title>
<ellipse fill="lightblue" stroke="lightblue" cx="4899" cy="-18" rx="85.7684" ry="18.3848"/>
<text text-anchor="middle" x="4899" y="-14.4" font-family="Times Roman,serif" font-size="14.00">&lt;undefined 7&gt;</text>
</g>
<!-- &lt;undefined 6&gt;&#45;&gt;&lt;undefined 7&gt; -->
<g id="edge42" class="edge"><title>&lt;undefined 6&gt;&#45;&gt;&lt;undefined 7&gt;</title>
<path fill="none" stroke="black" d="M4747.6,-18C4765.43,-18 4784.31,-18 4802.47,-18"/>
<polygon fill="black" stroke="black" points="4802.47,-21.5001 4812.47,-18 4802.47,-14.5001 4802.47,-21.5001"/>
<text text-anchor="middle" x="4780" y="-23.4" font-family="Times Roman,serif" font-size="14.00">160</text>
</g>
<!-- &lt;undefined 9&gt; -->
<g id="node23" class="node"><title>&lt;undefined 9&gt;</title>
<ellipse fill="none" stroke="black" cx="1415" cy="-154" rx="85.7684" ry="18.3848"/>
<text text-anchor="middle" x="1415" y="-150.4" font-family="Times Roman,serif" font-size="14.00">&lt;undefined 9&gt;</text>
</g>
<!-- &lt;undefined 8&gt;&#45;&gt;&lt;undefined 9&gt; -->
<g id="edge46" class="edge"><title>&lt;undefined 8&gt;&#45;&gt;&lt;undefined 9&gt;</title>
<path fill="none" stroke="black" d="M726.646,-154C872.405,-154 1165.63,-154 1318.04,-154"/>
<polygon fill="black" stroke="black" points="1318.32,-157.5 1328.32,-154 1318.32,-150.5 1318.32,-157.5"/>
<text text-anchor="middle" x="1024" y="-159.4" font-family="Times Roman,serif" font-size="14.00">186</text>
</g>
<!-- &lt;undefined 10&gt; -->
<g id="node24" class="node"><title>&lt;undefined 10&gt;</title>
<ellipse fill="none" stroke="black" cx="1843" cy="-154" rx="92.1303" ry="18.3848"/>
<text text-anchor="middle" x="1843" y="-150.4" font-family="Times Roman,serif" font-size="14.00">&lt;undefined 10&gt;</text>
</g>
<!-- &lt;undefined 9&gt;&#45;&gt;&lt;undefined 10&gt; -->
<g id="edge48" class="edge"><title>&lt;undefined 9&gt;&#45;&gt;&lt;undefined 10&gt;</title>
<path fill="none" stroke="black" d="M1501.61,-154C1570.55,-154 1667.22,-154 1740.1,-154"/>
<polygon fill="black" stroke="black" points="1740.22,-157.5 1750.22,-154 1740.22,-150.5 1740.22,-157.5"/>
<text text-anchor="middle" x="1645" y="-159.4" font-family="Times Roman,serif" font-size="14.00">186</text>
</g>
<!-- &lt;undefined 10&gt;&#45;&gt;nmap_mass_rdns(Target**, int) -->
<g id="edge50" class="edge"><title>&lt;undefined 10&gt;&#45;&gt;nmap_mass_rdns(Target**, int)</title>
<path fill="none" stroke="black" d="M1929.83,-160.307C1981.72,-164.076 2049,-168.964 2108.97,-173.32"/>
<polygon fill="black" stroke="black" points="2109.07,-176.836 2119.3,-174.07 2109.58,-169.855 2109.07,-176.836"/>
<text text-anchor="middle" x="1968" y="-168.4" font-family="Times Roman,serif" font-size="14.00">186</text>
</g>
<!-- ultra_scan(std::vector, scan_lists*, stype, timeou.. -->
<g id="node26" class="node"><title>ultra_scan(std::vector, scan_lists*, stype, timeou..</title>
<ellipse fill="none" stroke="black" cx="2256" cy="-110" rx="254.766" ry="18.3848"/>
<text text-anchor="middle" x="2256" y="-106.4" font-family="Times Roman,serif" font-size="14.00">ultra_scan(std::vector, scan_lists*, stype, timeou..</text>
</g>
<!-- UltraScanInfo::Init(std::vector, scan_lists*, styp..&#45;&gt;ultra_scan(std::vector, scan_lists*, stype, timeou.. -->
<g id="edge54" class="edge"><title>UltraScanInfo::Init(std::vector, scan_lists*, styp..&#45;&gt;ultra_scan(std::vector, scan_lists*, stype, timeou..</title>
<path fill="none" stroke="black" d="M1271.46,-108.402C1479.8,-108.74 1777.07,-109.223 1990.37,-109.569"/>
<polygon fill="black" stroke="black" points="1990.46,-113.069 2000.47,-109.585 1990.47,-106.069 1990.46,-113.069"/>
<text text-anchor="middle" x="1645" y="-114.4" font-family="Times Roman,serif" font-size="14.00">1935</text>
</g>
<!-- ultra_scan(std::vector, scan_lists*, stype, timeou..&#45;&gt;nexthost(HostGroupState*, TargetGroup*, scan_lists.. -->
<g id="edge56" class="edge"><title>ultra_scan(std::vector, scan_lists*, stype, timeou..&#45;&gt;nexthost(HostGroupState*, TargetGroup*, scan_lists..</title>
<path fill="none" stroke="black" d="M2412.72,-124.223C2494.85,-131.677 2595.6,-140.82 2679.78,-148.46"/>
<polygon fill="black" stroke="black" points="2679.68,-151.966 2689.96,-149.384 2680.31,-144.995 2679.68,-151.966"/>
<text text-anchor="middle" x="2544" y="-142.4" font-family="Times Roman,serif" font-size="14.00">220</text>
</g>
<!-- ultra_scan(std::vector, scan_lists*, stype, timeou..&#45;&gt;nmap_main(int, char**) -->
<g id="edge58" class="edge"><title>ultra_scan(std::vector, scan_lists*, stype, timeou..&#45;&gt;nmap_main(int, char**)</title>
<path fill="none" stroke="black" d="M2511.82,-110C2722,-110 3011.61,-110 3180.11,-110"/>
<polygon fill="black" stroke="black" points="3180.29,-113.5 3190.29,-110 3180.29,-106.5 3180.29,-113.5"/>
<text text-anchor="middle" x="2851" y="-115.4" font-family="Times Roman,serif" font-size="14.00">1715</text>
</g>
</g>
</svg>
