<?xml version="1.0" encoding="UTF-8" standalone="no"?>
<!DOCTYPE svg PUBLIC "-//W3C//DTD SVG 1.1//EN"
 "http://www.w3.org/Graphics/SVG/1.1/DTD/svg11.dtd">
<!-- Generated by graphviz version 2.26.3 (20100126.1600)
 -->
<!-- Title: Leak_DefinitelyLost Pages: 1 -->
<svg width="5100pt" height="236pt"
 viewBox="0.00 0.00 5100.00 236.00" xmlns="http://www.w3.org/2000/svg" xmlns:xlink="http://www.w3.org/1999/xlink">
<g id="graph1" class="graph" transform="scale(1 1) rotate(0) translate(4 232)">
<title>Leak_DefinitelyLost</title>
<polygon fill="white" stroke="white" points="-4,5 -4,-232 5097,-232 5097,5 -4,5"/>
<!-- &lt;undefined 2&gt; -->
<g id="node1" class="node"><title>&lt;undefined 2&gt;</title>
<ellipse fill="none" stroke="black" cx="640" cy="-118" rx="85.7684" ry="18.3848"/>
<text text-anchor="middle" x="640" y="-114.4" font-family="Times Roman,serif" font-size="14.00">&lt;undefined 2&gt;</text>
</g>
<!-- &lt;undefined 3&gt; -->
<g id="node3" class="node"><title>&lt;undefined 3&gt;</title>
<ellipse fill="none" stroke="black" cx="1645" cy="-118" rx="85.7684" ry="18.3848"/>
<text text-anchor="middle" x="1645" y="-114.4" font-family="Times Roman,serif" font-size="14.00">&lt;undefined 3&gt;</text>
</g>
<!-- &lt;undefined 2&gt;&#45;&gt;&lt;undefined 3&gt; -->
<g id="edge2" class="edge"><title>&lt;undefined 2&gt;&#45;&gt;&lt;undefined 3&gt;</title>
<path fill="none" stroke="black" d="M726.556,-118C913.19,-118 1352.39,-118 1548.03,-118"/>
<polygon fill="black" stroke="black" points="1548.3,-121.5 1558.3,-118 1548.3,-114.5 1548.3,-121.5"/>
<text text-anchor="middle" x="1024" y="-123.4" font-family="Times Roman,serif" font-size="14.00">41</text>
</g>
<!-- nmap_main(int, char**) -->
<g id="node2" class="node"><title>nmap_main(int, char**)</title>
<ellipse fill="none" stroke="black" cx="3423" cy="-108" rx="126.072" ry="18.3848"/>
<text text-anchor="middle" x="3423" y="-104.4" font-family="Times Roman,serif" font-size="14.00">nmap_main(int, char**)</text>
</g>
<!-- main -->
<g id="node9" class="node"><title>main</title>
<ellipse fill="lightblue" stroke="lightblue" cx="3823" cy="-108" rx="34.8574" ry="18.3848"/>
<text text-anchor="middle" x="3823" y="-104.4" font-family="Times Roman,serif" font-size="14.00">main</text>
</g>
<!-- nmap_main(int, char**)&#45;&gt;main -->
<g id="edge54" class="edge"><title>nmap_main(int, char**)&#45;&gt;main</title>
<path fill="none" stroke="black" d="M3549.56,-108C3627.19,-108 3721.95,-108 3777.09,-108"/>
<polygon fill="black" stroke="black" points="3777.24,-111.5 3787.24,-108 3777.24,-104.5 3777.24,-111.5"/>
<text text-anchor="middle" x="3587" y="-113.4" font-family="Times Roman,serif" font-size="14.00">2207</text>
</g>
<!-- nmap_mass_rdns(Target**, int) -->
<g id="node7" class="node"><title>nmap_mass_rdns(Target**, int)</title>
<ellipse fill="none" stroke="black" cx="2362" cy="-113" rx="162.842" ry="18.3848"/>
<text text-anchor="middle" x="2362" y="-109.4" font-family="Times Roman,serif" font-size="14.00">nmap_mass_rdns(Target**, int)</text>
</g>
<!-- &lt;undefined 3&gt;&#45;&gt;nmap_mass_rdns(Target**, int) -->
<g id="edge16" class="edge"><title>&lt;undefined 3&gt;&#45;&gt;nmap_mass_rdns(Target**, int)</title>
<path fill="none" stroke="black" d="M1731.49,-117.397C1844.15,-116.611 2043.77,-115.219 2188.27,-114.211"/>
<polygon fill="black" stroke="black" points="2188.6,-117.709 2198.58,-114.14 2188.55,-110.71 2188.6,-117.709"/>
<text text-anchor="middle" x="1843" y="-123.4" font-family="Times Roman,serif" font-size="14.00">41</text>
</g>
<!-- &lt;undefined 10&gt; -->
<g id="node4" class="node"><title>&lt;undefined 10&gt;</title>
<ellipse fill="none" stroke="black" cx="1843" cy="-64" rx="92.1303" ry="18.3848"/>
<text text-anchor="middle" x="1843" y="-60.4" font-family="Times Roman,serif" font-size="14.00">&lt;undefined 10&gt;</text>
</g>
<!-- &lt;undefined 10&gt;&#45;&gt;nmap_mass_rdns(Target**, int) -->
<g id="edge4" class="edge"><title>&lt;undefined 10&gt;&#45;&gt;nmap_mass_rdns(Target**, int)</title>
<path fill="none" stroke="black" d="M1927.49,-71.4051C1974.72,-75.5899 2034.64,-80.9753 2088,-86 2134.57,-90.3849 2185.56,-95.3624 2230.8,-99.8388"/>
<polygon fill="black" stroke="black" points="2230.67,-103.342 2240.97,-100.845 2231.36,-96.3766 2230.67,-103.342"/>
<text text-anchor="middle" x="2021" y="-91.4" font-family="Times Roman,serif" font-size="14.00">186</text>
</g>
<!-- malloc -->
<g id="node5" class="node"><title>malloc</title>
<ellipse fill="none" stroke="black" cx="302" cy="-164" rx="41.9273" ry="18.3848"/>
<text text-anchor="middle" x="302" y="-160.4" font-family="Times Roman,serif" font-size="14.00">malloc</text>
</g>
<!-- nss_parse_service_list -->
<g id="node6" class="node"><title>nss_parse_service_list</title>
<ellipse fill="none" stroke="black" cx="640" cy="-210" rx="118.087" ry="18.3848"/>
<text text-anchor="middle" x="640" y="-206.4" font-family="Times Roman,serif" font-size="14.00">nss_parse_service_list</text>
</g>
<!-- malloc&#45;&gt;nss_parse_service_list -->
<g id="edge20" class="edge"><title>malloc&#45;&gt;nss_parse_service_list</title>
<path fill="none" stroke="black" d="M342.771,-169.549C391.704,-176.208 475.432,-187.603 541.577,-196.605"/>
<polygon fill="black" stroke="black" points="541.236,-200.091 551.617,-197.972 542.18,-193.155 541.236,-200.091"/>
<text text-anchor="middle" x="485" y="-196.4" font-family="Times Roman,serif" font-size="14.00">160</text>
</g>
<!-- safe_malloc -->
<g id="node13" class="node"><title>safe_malloc</title>
<ellipse fill="none" stroke="black" cx="2021" cy="-164" rx="67.1751" ry="18.3848"/>
<text text-anchor="middle" x="2021" y="-160.4" font-family="Times Roman,serif" font-size="14.00">safe_malloc</text>
</g>
<!-- malloc&#45;&gt;safe_malloc -->
<g id="edge56" class="edge"><title>malloc&#45;&gt;safe_malloc</title>
<path fill="none" stroke="black" d="M344.685,-164C408.803,-164 533.788,-164 640,-164 640,-164 640,-164 1645,-164 1748.18,-164 1867.29,-164 1943.32,-164"/>
<polygon fill="black" stroke="black" points="1943.76,-167.5 1953.76,-164 1943.76,-160.5 1943.76,-167.5"/>
<text text-anchor="middle" x="1024" y="-169.4" font-family="Times Roman,serif" font-size="14.00">45</text>
</g>
<!-- __nss_database_lookup -->
<g id="node19" class="node"><title>__nss_database_lookup</title>
<ellipse fill="none" stroke="black" cx="1415" cy="-210" rx="123.951" ry="18.3848"/>
<text text-anchor="middle" x="1415" y="-206.4" font-family="Times Roman,serif" font-size="14.00">__nss_database_lookup</text>
</g>
<!-- nss_parse_service_list&#45;&gt;__nss_database_lookup -->
<g id="edge50" class="edge"><title>nss_parse_service_list&#45;&gt;__nss_database_lookup</title>
<path fill="none" stroke="black" d="M758.127,-210C898.651,-210 1132.72,-210 1280.19,-210"/>
<polygon fill="black" stroke="black" points="1280.22,-213.5 1290.22,-210 1280.22,-206.5 1280.22,-213.5"/>
<text text-anchor="middle" x="1024" y="-215.4" font-family="Times Roman,serif" font-size="14.00">160</text>
</g>
<!-- nexthost(HostGroupState*, TargetGroup*, scan_lists.. -->
<g id="node11" class="node"><title>nexthost(HostGroupState*, TargetGroup*, scan_lists..</title>
<ellipse fill="none" stroke="black" cx="2957" cy="-108" rx="275.065" ry="18.3848"/>
<text text-anchor="middle" x="2957" y="-104.4" font-family="Times Roman,serif" font-size="14.00">nexthost(HostGroupState*, TargetGroup*, scan_lists..</text>
</g>
<!-- nmap_mass_rdns(Target**, int)&#45;&gt;nexthost(HostGroupState*, TargetGroup*, scan_lists.. -->
<g id="edge42" class="edge"><title>nmap_mass_rdns(Target**, int)&#45;&gt;nexthost(HostGroupState*, TargetGroup*, scan_lists..</title>
<path fill="none" stroke="black" d="M2525.37,-111.627C2571.49,-111.24 2623.06,-110.806 2674.05,-110.378"/>
<polygon fill="black" stroke="black" points="2674.26,-113.876 2684.23,-110.292 2674.21,-106.876 2674.26,-113.876"/>
<text text-anchor="middle" x="2650" y="-116.4" font-family="Times Roman,serif" font-size="14.00">227</text>
</g>
<!-- getpwuid_r@@GLIBC_2.1.2 -->
<g id="node8" class="node"><title>getpwuid_r@@GLIBC_2.1.2</title>
<ellipse fill="none" stroke="black" cx="2957" cy="-210" rx="147.992" ry="18.3848"/>
<text text-anchor="middle" x="2957" y="-206.4" font-family="Times Roman,serif" font-size="14.00">getpwuid_r@@GLIBC_2.1.2</text>
</g>
<!-- getpwuid -->
<g id="node17" class="node"><title>getpwuid</title>
<ellipse fill="none" stroke="black" cx="3423" cy="-210" rx="56.7776" ry="18.3848"/>
<text text-anchor="middle" x="3423" y="-206.4" font-family="Times Roman,serif" font-size="14.00">getpwuid</text>
</g>
<!-- getpwuid_r@@GLIBC_2.1.2&#45;&gt;getpwuid -->
<g id="edge30" class="edge"><title>getpwuid_r@@GLIBC_2.1.2&#45;&gt;getpwuid</title>
<path fill="none" stroke="black" d="M3105.73,-210C3189.54,-210 3290.17,-210 3355.29,-210"/>
<polygon fill="black" stroke="black" points="3355.43,-213.5 3365.43,-210 3355.43,-206.5 3355.43,-213.5"/>
<text text-anchor="middle" x="3264" y="-215.4" font-family="Times Roman,serif" font-size="14.00">160</text>
</g>
<!-- ultra_scan(std::vector, scan_lists*, stype, timeou.. -->
<g id="node10" class="node"><title>ultra_scan(std::vector, scan_lists*, stype, timeou..</title>
<ellipse fill="none" stroke="black" cx="2362" cy="-39" rx="254.766" ry="18.3848"/>
<text text-anchor="middle" x="2362" y="-35.4" font-family="Times Roman,serif" font-size="14.00">ultra_scan(std::vector, scan_lists*, stype, timeou..</text>
</g>
<!-- ultra_scan(std::vector, scan_lists*, stype, timeou..&#45;&gt;nmap_main(int, char**) -->
<g id="edge10" class="edge"><title>ultra_scan(std::vector, scan_lists*, stype, timeou..&#45;&gt;nmap_main(int, char**)</title>
<path fill="none" stroke="black" d="M2600.73,-32.5451C2776.12,-30.9651 3019.8,-35.3692 3232,-63 3274.3,-68.5085 3320.92,-79.3956 3357.51,-89.0811"/>
<polygon fill="black" stroke="black" points="3356.99,-92.5646 3367.56,-91.7756 3358.81,-85.8037 3356.99,-92.5646"/>
<text text-anchor="middle" x="2957" y="-68.4" font-family="Times Roman,serif" font-size="14.00">1715</text>
</g>
<!-- ultra_scan(std::vector, scan_lists*, stype, timeou..&#45;&gt;nexthost(HostGroupState*, TargetGroup*, scan_lists.. -->
<g id="edge52" class="edge"><title>ultra_scan(std::vector, scan_lists*, stype, timeou..&#45;&gt;nexthost(HostGroupState*, TargetGroup*, scan_lists..</title>
<path fill="none" stroke="black" d="M2494.79,-54.3991C2588.82,-65.3032 2714.9,-79.9245 2811.63,-91.1417"/>
<polygon fill="black" stroke="black" points="2811.45,-94.6442 2821.78,-92.3195 2812.25,-87.6908 2811.45,-94.6442"/>
<text text-anchor="middle" x="2650" y="-79.4" font-family="Times Roman,serif" font-size="14.00">220</text>
</g>
<!-- nexthost(HostGroupState*, TargetGroup*, scan_lists..&#45;&gt;nmap_main(int, char**) -->
<g id="edge26" class="edge"><title>nexthost(HostGroupState*, TargetGroup*, scan_lists..&#45;&gt;nmap_main(int, char**)</title>
<path fill="none" stroke="black" d="M3232.12,-108C3250.73,-108 3268.97,-108 3286.35,-108"/>
<polygon fill="black" stroke="black" points="3286.47,-111.5 3296.47,-108 3286.47,-104.5 3286.47,-111.5"/>
<text text-anchor="middle" x="3264" y="-113.4" font-family="Times Roman,serif" font-size="14.00">447</text>
</g>
<!-- ROOT -->
<g id="node12" class="node"><title>ROOT</title>
<ellipse fill="none" stroke="black" cx="41" cy="-130" rx="41.0122" ry="18.3848"/>
<text text-anchor="middle" x="41" y="-126.4" font-family="Times Roman,serif" font-size="14.00">ROOT</text>
</g>
<!-- ROOT&#45;&gt;malloc -->
<g id="edge58" class="edge"><title>ROOT&#45;&gt;malloc</title>
<path fill="none" stroke="black" d="M80.3569,-135.127C125.921,-141.063 201.094,-150.855 251.076,-157.366"/>
<polygon fill="black" stroke="black" points="250.661,-160.842 261.029,-158.663 251.565,-153.9 250.661,-160.842"/>
<text text-anchor="middle" x="119" y="-147.4" font-family="Times Roman,serif" font-size="14.00">205</text>
</g>
<!-- operator new(unsigned int) -->
<g id="node16" class="node"><title>operator new(unsigned int)</title>
<ellipse fill="none" stroke="black" cx="302" cy="-89" rx="145.163" ry="18.3848"/>
<text text-anchor="middle" x="302" y="-85.4" font-family="Times Roman,serif" font-size="14.00">operator new(unsigned int)</text>
</g>
<!-- ROOT&#45;&gt;operator new(unsigned int) -->
<g id="edge40" class="edge"><title>ROOT&#45;&gt;operator new(unsigned int)</title>
<path fill="none" stroke="black" d="M77.4183,-121.503C84.8672,-119.898 92.6697,-118.313 100,-117 128.602,-111.875 159.627,-107.158 188.581,-103.114"/>
<polygon fill="black" stroke="black" points="189.302,-106.548 198.729,-101.713 188.344,-99.614 189.302,-106.548"/>
<text text-anchor="middle" x="119" y="-122.4" font-family="Times Roman,serif" font-size="14.00">2162</text>
</g>
<!-- safe_malloc&#45;&gt;nmap_main(int, char**) -->
<g id="edge14" class="edge"><title>safe_malloc&#45;&gt;nmap_main(int, char**)</title>
<path fill="none" stroke="black" d="M2088.04,-164.376C2271.4,-164.975 2796.57,-163.827 3232,-135 3265.02,-132.814 3301,-128.293 3332.74,-123.566"/>
<polygon fill="black" stroke="black" points="3333.53,-126.987 3342.89,-122.026 3332.48,-120.066 3333.53,-126.987"/>
<text text-anchor="middle" x="2650" y="-165.4" font-family="Times Roman,serif" font-size="14.00">45</text>
</g>
<!-- nmap_fetchfile(char*, int, char const*) -->
<g id="node14" class="node"><title>nmap_fetchfile(char*, int, char const*)</title>
<ellipse fill="none" stroke="black" cx="3823" cy="-210" rx="198.197" ry="18.3848"/>
<text text-anchor="middle" x="3823" y="-206.4" font-family="Times Roman,serif" font-size="14.00">nmap_fetchfile(char*, int, char const*)</text>
</g>
<!-- NmapOps::Initialize() -->
<g id="node22" class="node"><title>NmapOps::Initialize()</title>
<ellipse fill="none" stroke="black" cx="4200" cy="-210" rx="113.844" ry="18.3848"/>
<text text-anchor="middle" x="4200" y="-206.4" font-family="Times Roman,serif" font-size="14.00">NmapOps::Initialize()</text>
</g>
<!-- nmap_fetchfile(char*, int, char const*)&#45;&gt;NmapOps::Initialize() -->
<g id="edge34" class="edge"><title>nmap_fetchfile(char*, int, char const*)&#45;&gt;NmapOps::Initialize()</title>
<path fill="none" stroke="black" d="M4021.71,-210C4040.08,-210 4058.32,-210 4075.73,-210"/>
<polygon fill="black" stroke="black" points="4075.87,-213.5 4085.87,-210 4075.87,-206.5 4075.87,-213.5"/>
<text text-anchor="middle" x="4054" y="-215.4" font-family="Times Roman,serif" font-size="14.00">160</text>
</g>
<!-- &lt;undefined 6&gt; -->
<g id="node15" class="node"><title>&lt;undefined 6&gt;</title>
<ellipse fill="none" stroke="black" cx="4767" cy="-210" rx="85.7684" ry="18.3848"/>
<text text-anchor="middle" x="4767" y="-206.4" font-family="Times Roman,serif" font-size="14.00">&lt;undefined 6&gt;</text>
</g>
<!-- &lt;undefined 7&gt; -->
<g id="node25" class="node"><title>&lt;undefined 7&gt;</title>
<ellipse fill="lightblue" stroke="lightblue" cx="5005" cy="-210" rx="85.7684" ry="18.3848"/>
<text text-anchor="middle" x="5005" y="-206.4" font-family="Times Roman,serif" font-size="14.00">&lt;undefined 7&gt;</text>
</g>
<!-- &lt;undefined 6&gt;&#45;&gt;&lt;undefined 7&gt; -->
<g id="edge12" class="edge"><title>&lt;undefined 6&gt;&#45;&gt;&lt;undefined 7&gt;</title>
<path fill="none" stroke="black" d="M4853.6,-210C4871.43,-210 4890.31,-210 4908.47,-210"/>
<polygon fill="black" stroke="black" points="4908.47,-213.5 4918.47,-210 4908.47,-206.5 4908.47,-213.5"/>
<text text-anchor="middle" x="4886" y="-215.4" font-family="Times Roman,serif" font-size="14.00">160</text>
</g>
<!-- operator new(unsigned int)&#45;&gt;&lt;undefined 2&gt; -->
<g id="edge44" class="edge"><title>operator new(unsigned int)&#45;&gt;&lt;undefined 2&gt;</title>
<path fill="none" stroke="black" d="M421.642,-99.2651C463.832,-102.885 510.52,-106.891 549.86,-110.266"/>
<polygon fill="black" stroke="black" points="549.696,-113.765 559.959,-111.133 550.294,-106.79 549.696,-113.765"/>
<text text-anchor="middle" x="485" y="-112.4" font-family="Times Roman,serif" font-size="14.00">41</text>
</g>
<!-- &lt;undefined 8&gt; -->
<g id="node18" class="node"><title>&lt;undefined 8&gt;</title>
<ellipse fill="none" stroke="black" cx="640" cy="-64" rx="85.7684" ry="18.3848"/>
<text text-anchor="middle" x="640" y="-60.4" font-family="Times Roman,serif" font-size="14.00">&lt;undefined 8&gt;</text>
</g>
<!-- operator new(unsigned int)&#45;&gt;&lt;undefined 8&gt; -->
<g id="edge36" class="edge"><title>operator new(unsigned int)&#45;&gt;&lt;undefined 8&gt;</title>
<path fill="none" stroke="black" d="M409.987,-76.9175C428.649,-75.0838 447.874,-73.355 466,-72 491.424,-70.0994 518.974,-68.583 544.492,-67.4038"/>
<polygon fill="black" stroke="black" points="544.705,-70.8979 554.537,-66.952 544.39,-63.905 544.705,-70.8979"/>
<text text-anchor="middle" x="485" y="-77.4" font-family="Times Roman,serif" font-size="14.00">186</text>
</g>
<!-- UltraScanInfo::Init(std::vector, scan_lists*, styp.. -->
<g id="node24" class="node"><title>UltraScanInfo::Init(std::vector, scan_lists*, styp..</title>
<ellipse fill="none" stroke="black" cx="1024" cy="-18" rx="246.987" ry="18.3848"/>
<text text-anchor="middle" x="1024" y="-14.4" font-family="Times Roman,serif" font-size="14.00">UltraScanInfo::Init(std::vector, scan_lists*, styp..</text>
</g>
<!-- operator new(unsigned int)&#45;&gt;UltraScanInfo::Init(std::vector, scan_lists*, styp.. -->
<g id="edge22" class="edge"><title>operator new(unsigned int)&#45;&gt;UltraScanInfo::Init(std::vector, scan_lists*, styp..</title>
<path fill="none" stroke="black" d="M364.124,-72.6753C394.715,-64.8396 432.199,-55.5396 466,-48 490.756,-42.4779 496.806,-39.933 522,-37 601.442,-27.7516 688.385,-22.691 767.261,-20.0046"/>
<polygon fill="black" stroke="black" points="767.457,-23.5002 777.336,-19.6728 767.227,-16.504 767.457,-23.5002"/>
<text text-anchor="middle" x="485" y="-53.4" font-family="Times Roman,serif" font-size="14.00">1935</text>
</g>
<!-- getpwuid&#45;&gt;nmap_fetchfile(char*, int, char const*) -->
<g id="edge24" class="edge"><title>getpwuid&#45;&gt;nmap_fetchfile(char*, int, char const*)</title>
<path fill="none" stroke="black" d="M3480.74,-210C3516.56,-210 3565.02,-210 3614.18,-210"/>
<polygon fill="black" stroke="black" points="3614.35,-213.5 3624.35,-210 3614.35,-206.5 3614.35,-213.5"/>
<text text-anchor="middle" x="3587" y="-215.4" font-family="Times Roman,serif" font-size="14.00">160</text>
</g>
<!-- &lt;undefined 9&gt; -->
<g id="node21" class="node"><title>&lt;undefined 9&gt;</title>
<ellipse fill="none" stroke="black" cx="1415" cy="-64" rx="85.7684" ry="18.3848"/>
<text text-anchor="middle" x="1415" y="-60.4" font-family="Times Roman,serif" font-size="14.00">&lt;undefined 9&gt;</text>
</g>
<!-- &lt;undefined 8&gt;&#45;&gt;&lt;undefined 9&gt; -->
<g id="edge46" class="edge"><title>&lt;undefined 8&gt;&#45;&gt;&lt;undefined 9&gt;</title>
<path fill="none" stroke="black" d="M726.646,-64C872.405,-64 1165.63,-64 1318.04,-64"/>
<polygon fill="black" stroke="black" points="1318.32,-67.5001 1328.32,-64 1318.32,-60.5001 1318.32,-67.5001"/>
<text text-anchor="middle" x="1024" y="-69.4" font-family="Times Roman,serif" font-size="14.00">186</text>
</g>
<!-- &lt;undefined 4&gt; -->
<g id="node26" class="node"><title>&lt;undefined 4&gt;</title>
<ellipse fill="none" stroke="black" cx="1843" cy="-210" rx="85.7684" ry="18.3848"/>
<text text-anchor="middle" x="1843" y="-206.4" font-family="Times Roman,serif" font-size="14.00">&lt;undefined 4&gt;</text>
</g>
<!-- __nss_database_lookup&#45;&gt;&lt;undefined 4&gt; -->
<g id="edge8" class="edge"><title>__nss_database_lookup&#45;&gt;&lt;undefined 4&gt;</title>
<path fill="none" stroke="black" d="M1539.66,-210C1605.58,-210 1685.29,-210 1746.45,-210"/>
<polygon fill="black" stroke="black" points="1746.49,-213.5 1756.49,-210 1746.49,-206.5 1746.49,-213.5"/>
<text text-anchor="middle" x="1645" y="-215.4" font-family="Times Roman,serif" font-size="14.00">160</text>
</g>
<!-- NmapOps::NmapOps() -->
<g id="node20" class="node"><title>NmapOps::NmapOps()</title>
<ellipse fill="none" stroke="black" cx="4497" cy="-210" rx="118.794" ry="18.3848"/>
<text text-anchor="middle" x="4497" y="-206.4" font-family="Times Roman,serif" font-size="14.00">NmapOps::NmapOps()</text>
</g>
<!-- NmapOps::NmapOps()&#45;&gt;&lt;undefined 6&gt; -->
<g id="edge6" class="edge"><title>NmapOps::NmapOps()&#45;&gt;&lt;undefined 6&gt;</title>
<path fill="none" stroke="black" d="M4616.21,-210C4634.28,-210 4652.73,-210 4670.24,-210"/>
<polygon fill="black" stroke="black" points="4670.44,-213.5 4680.44,-210 4670.44,-206.5 4670.44,-213.5"/>
<text text-anchor="middle" x="4648" y="-215.4" font-family="Times Roman,serif" font-size="14.00">160</text>
</g>
<!-- &lt;undefined 9&gt;&#45;&gt;&lt;undefined 10&gt; -->
<g id="edge28" class="edge"><title>&lt;undefined 9&gt;&#45;&gt;&lt;undefined 10&gt;</title>
<path fill="none" stroke="black" d="M1501.61,-64C1570.55,-64 1667.22,-64 1740.1,-64"/>
<polygon fill="black" stroke="black" points="1740.22,-67.5001 1750.22,-64 1740.22,-60.5001 1740.22,-67.5001"/>
<text text-anchor="middle" x="1645" y="-69.4" font-family="Times Roman,serif" font-size="14.00">186</text>
</g>
<!-- NmapOps::Initialize()&#45;&gt;NmapOps::NmapOps() -->
<g id="edge18" class="edge"><title>NmapOps::Initialize()&#45;&gt;NmapOps::NmapOps()</title>
<path fill="none" stroke="black" d="M4314.4,-210C4331.75,-210 4349.76,-210 4367.4,-210"/>
<polygon fill="black" stroke="black" points="4367.74,-213.5 4377.74,-210 4367.74,-206.5 4367.74,-213.5"/>
<text text-anchor="middle" x="4346" y="-215.4" font-family="Times Roman,serif" font-size="14.00">160</text>
</g>
<!-- &lt;undefined 5&gt; -->
<g id="node23" class="node"><title>&lt;undefined 5&gt;</title>
<ellipse fill="none" stroke="black" cx="2362" cy="-210" rx="85.7684" ry="18.3848"/>
<text text-anchor="middle" x="2362" y="-206.4" font-family="Times Roman,serif" font-size="14.00">&lt;undefined 5&gt;</text>
</g>
<!-- &lt;undefined 5&gt;&#45;&gt;getpwuid_r@@GLIBC_2.1.2 -->
<g id="edge32" class="edge"><title>&lt;undefined 5&gt;&#45;&gt;getpwuid_r@@GLIBC_2.1.2</title>
<path fill="none" stroke="black" d="M2448.52,-210C2539.95,-210 2686.17,-210 2798.39,-210"/>
<polygon fill="black" stroke="black" points="2798.45,-213.5 2808.45,-210 2798.45,-206.5 2798.45,-213.5"/>
<text text-anchor="middle" x="2650" y="-215.4" font-family="Times Roman,serif" font-size="14.00">160</text>
</g>
<!-- UltraScanInfo::Init(std::vector, scan_lists*, styp..&#45;&gt;ultra_scan(std::vector, scan_lists*, stype, timeou.. -->
<g id="edge48" class="edge"><title>UltraScanInfo::Init(std::vector, scan_lists*, styp..&#45;&gt;ultra_scan(std::vector, scan_lists*, stype, timeou..</title>
<path fill="none" stroke="black" d="M1266.3,-21.8029C1502.39,-25.5083 1860.15,-31.1235 2102.08,-34.9205"/>
<polygon fill="black" stroke="black" points="2102.37,-38.4255 2112.43,-35.083 2102.48,-31.4264 2102.37,-38.4255"/>
<text text-anchor="middle" x="1645" y="-35.4" font-family="Times Roman,serif" font-size="14.00">1935</text>
</g>
<!-- &lt;undefined 4&gt;&#45;&gt;&lt;undefined 5&gt; -->
<g id="edge38" class="edge"><title>&lt;undefined 4&gt;&#45;&gt;&lt;undefined 5&gt;</title>
<path fill="none" stroke="black" d="M1929.58,-210C2022.19,-210 2168.74,-210 2265.14,-210"/>
<polygon fill="black" stroke="black" points="2265.18,-213.5 2275.18,-210 2265.18,-206.5 2265.18,-213.5"/>
<text text-anchor="middle" x="2021" y="-215.4" font-family="Times Roman,serif" font-size="14.00">160</text>
</g>
</g>
</svg>
