<?xml version="1.0" encoding="UTF-8" standalone="no"?>
<!DOCTYPE svg PUBLIC "-//W3C//DTD SVG 1.1//EN"
 "http://www.w3.org/Graphics/SVG/1.1/DTD/svg11.dtd">
<!-- Generated by graphviz version 2.26.3 (20100126.1600)
 -->
<!-- Title: Leak_DefinitelyLost Pages: 1 -->
<svg width="4458pt" height="190pt"
 viewBox="0.00 0.00 4458.00 190.00" xmlns="http://www.w3.org/2000/svg" xmlns:xlink="http://www.w3.org/1999/xlink">
<g id="graph1" class="graph" transform="scale(1 1) rotate(0) translate(4 186)">
<title>Leak_DefinitelyLost</title>
<polygon fill="white" stroke="white" points="-4,5 -4,-186 4455,-186 4455,5 -4,5"/>
<!-- ROOT -->
<g id="node1" class="node"><title>ROOT</title>
<ellipse fill="none" stroke="black" cx="41" cy="-89" rx="41.0122" ry="18.3848"/>
<text text-anchor="middle" x="41" y="-85.4" font-family="Times Roman,serif" font-size="14.00">ROOT</text>
</g>
<!-- malloc -->
<g id="node2" class="node"><title>malloc</title>
<ellipse fill="none" stroke="black" cx="292" cy="-61" rx="41.9273" ry="18.3848"/>
<text text-anchor="middle" x="292" y="-57.4" font-family="Times Roman,serif" font-size="14.00">malloc</text>
</g>
<!-- ROOT&#45;&gt;malloc -->
<g id="edge2" class="edge"><title>ROOT&#45;&gt;malloc</title>
<path fill="none" stroke="black" d="M74.7484,-78.5892C82.9424,-76.4122 91.7277,-74.3657 100,-73 146.735,-65.2843 200.617,-62.4347 239.382,-61.4275"/>
<polygon fill="black" stroke="black" points="239.479,-64.9263 249.396,-61.1995 239.319,-57.9281 239.479,-64.9263"/>
<text text-anchor="middle" x="114" y="-78.4" font-family="Times Roman,serif" font-size="14.00">195</text>
</g>
<!-- operator new(unsigned int) -->
<g id="node6" class="node"><title>operator new(unsigned int)</title>
<ellipse fill="none" stroke="black" cx="292" cy="-115" rx="145.163" ry="18.3848"/>
<text text-anchor="middle" x="292" y="-111.4" font-family="Times Roman,serif" font-size="14.00">operator new(unsigned int)</text>
</g>
<!-- ROOT&#45;&gt;operator new(unsigned int) -->
<g id="edge10" class="edge"><title>ROOT&#45;&gt;operator new(unsigned int)</title>
<path fill="none" stroke="black" d="M81.0492,-93.1485C105.446,-95.6756 138.046,-99.0526 170.311,-102.395"/>
<polygon fill="black" stroke="black" points="169.996,-105.881 180.304,-103.43 170.717,-98.918 169.996,-105.881"/>
<text text-anchor="middle" x="114" y="-102.4" font-family="Times Roman,serif" font-size="14.00">227</text>
</g>
<!-- safe_malloc -->
<g id="node3" class="node"><title>safe_malloc</title>
<ellipse fill="none" stroke="black" cx="843" cy="-64" rx="67.1751" ry="18.3848"/>
<text text-anchor="middle" x="843" y="-60.4" font-family="Times Roman,serif" font-size="14.00">safe_malloc</text>
</g>
<!-- malloc&#45;&gt;safe_malloc -->
<g id="edge4" class="edge"><title>malloc&#45;&gt;safe_malloc</title>
<path fill="none" stroke="black" d="M334.778,-61.2329C427.526,-61.7379 648.232,-62.9396 765.947,-63.5805"/>
<polygon fill="black" stroke="black" points="765.953,-67.0805 775.972,-63.6351 765.991,-60.0806 765.953,-67.0805"/>
<text text-anchor="middle" x="470" y="-66.4" font-family="Times Roman,serif" font-size="14.00">35</text>
</g>
<!-- nss_parse_service_list -->
<g id="node11" class="node"><title>nss_parse_service_list</title>
<ellipse fill="none" stroke="black" cx="620" cy="-18" rx="118.087" ry="18.3848"/>
<text text-anchor="middle" x="620" y="-14.4" font-family="Times Roman,serif" font-size="14.00">nss_parse_service_list</text>
</g>
<!-- malloc&#45;&gt;nss_parse_service_list -->
<g id="edge22" class="edge"><title>malloc&#45;&gt;nss_parse_service_list</title>
<path fill="none" stroke="black" d="M327.49,-50.9893C360.478,-42.1644 411.136,-29.8303 456,-24 467.699,-22.4797 479.904,-21.2942 492.145,-20.375"/>
<polygon fill="black" stroke="black" points="492.691,-23.8457 502.425,-19.664 492.208,-16.8624 492.691,-23.8457"/>
<text text-anchor="middle" x="470" y="-29.4" font-family="Times Roman,serif" font-size="14.00">160</text>
</g>
<!-- nmap_main(int, char**) -->
<g id="node4" class="node"><title>nmap_main(int, char**)</title>
<ellipse fill="none" stroke="black" cx="2791" cy="-84" rx="126.072" ry="18.3848"/>
<text text-anchor="middle" x="2791" y="-80.4" font-family="Times Roman,serif" font-size="14.00">nmap_main(int, char**)</text>
</g>
<!-- safe_malloc&#45;&gt;nmap_main(int, char**) -->
<g id="edge6" class="edge"><title>safe_malloc&#45;&gt;nmap_main(int, char**)</title>
<path fill="none" stroke="black" d="M910.039,-64C999.602,-64 1163.24,-64 1303,-64 1303,-64 1303,-64 2325,-64 2440.63,-64 2572.26,-70.2228 2666.06,-75.7263"/>
<polygon fill="black" stroke="black" points="2665.97,-79.227 2676.16,-76.3247 2666.38,-72.2393 2665.97,-79.227"/>
<text text-anchor="middle" x="1626" y="-69.4" font-family="Times Roman,serif" font-size="14.00">35</text>
</g>
<!-- main -->
<g id="node5" class="node"><title>main</title>
<ellipse fill="lightblue" stroke="lightblue" cx="3181" cy="-84" rx="34.8574" ry="18.3848"/>
<text text-anchor="middle" x="3181" y="-80.4" font-family="Times Roman,serif" font-size="14.00">main</text>
</g>
<!-- nmap_main(int, char**)&#45;&gt;main -->
<g id="edge8" class="edge"><title>nmap_main(int, char**)&#45;&gt;main</title>
<path fill="none" stroke="black" d="M2917.62,-84C2992.27,-84 3082.23,-84 3135.34,-84"/>
<polygon fill="black" stroke="black" points="3135.46,-87.5001 3145.46,-84 3135.46,-80.5001 3135.46,-87.5001"/>
<text text-anchor="middle" x="2950" y="-89.4" font-family="Times Roman,serif" font-size="14.00">262</text>
</g>
<!-- &lt;undefined 2&gt; -->
<g id="node7" class="node"><title>&lt;undefined 2&gt;</title>
<ellipse fill="none" stroke="black" cx="843" cy="-162" rx="85.7684" ry="18.3848"/>
<text text-anchor="middle" x="843" y="-158.4" font-family="Times Roman,serif" font-size="14.00">&lt;undefined 2&gt;</text>
</g>
<!-- operator new(unsigned int)&#45;&gt;&lt;undefined 2&gt; -->
<g id="edge12" class="edge"><title>operator new(unsigned int)&#45;&gt;&lt;undefined 2&gt;</title>
<path fill="none" stroke="black" d="M395.599,-127.688C415.624,-129.946 436.452,-132.161 456,-134 555.969,-143.403 670.724,-151.349 749.156,-156.346"/>
<polygon fill="black" stroke="black" points="749.294,-159.862 759.495,-157.001 749.737,-152.876 749.294,-159.862"/>
<text text-anchor="middle" x="470" y="-141.4" font-family="Times Roman,serif" font-size="14.00">41</text>
</g>
<!-- &lt;undefined 8&gt; -->
<g id="node22" class="node"><title>&lt;undefined 8&gt;</title>
<ellipse fill="none" stroke="black" cx="620" cy="-110" rx="85.7684" ry="18.3848"/>
<text text-anchor="middle" x="620" y="-106.4" font-family="Times Roman,serif" font-size="14.00">&lt;undefined 8&gt;</text>
</g>
<!-- operator new(unsigned int)&#45;&gt;&lt;undefined 8&gt; -->
<g id="edge44" class="edge"><title>operator new(unsigned int)&#45;&gt;&lt;undefined 8&gt;</title>
<path fill="none" stroke="black" d="M436.82,-112.792C466.038,-112.347 496.078,-111.889 523.164,-111.476"/>
<polygon fill="black" stroke="black" points="523.447,-114.972 533.393,-111.32 523.341,-107.973 523.447,-114.972"/>
<text text-anchor="middle" x="470" y="-117.4" font-family="Times Roman,serif" font-size="14.00">186</text>
</g>
<!-- &lt;undefined 3&gt; -->
<g id="node8" class="node"><title>&lt;undefined 3&gt;</title>
<ellipse fill="none" stroke="black" cx="1303" cy="-164" rx="85.7684" ry="18.3848"/>
<text text-anchor="middle" x="1303" y="-160.4" font-family="Times Roman,serif" font-size="14.00">&lt;undefined 3&gt;</text>
</g>
<!-- &lt;undefined 2&gt;&#45;&gt;&lt;undefined 3&gt; -->
<g id="edge14" class="edge"><title>&lt;undefined 2&gt;&#45;&gt;&lt;undefined 3&gt;</title>
<path fill="none" stroke="black" d="M929.522,-162.376C1008.35,-162.719 1124.6,-163.224 1206.42,-163.58"/>
<polygon fill="black" stroke="black" points="1206.46,-167.08 1216.48,-163.624 1206.49,-160.08 1206.46,-167.08"/>
<text text-anchor="middle" x="1073" y="-168.4" font-family="Times Roman,serif" font-size="14.00">41</text>
</g>
<!-- nmap_mass_rdns(Target**, int) -->
<g id="node9" class="node"><title>nmap_mass_rdns(Target**, int)</title>
<ellipse fill="none" stroke="black" cx="1822" cy="-110" rx="162.842" ry="18.3848"/>
<text text-anchor="middle" x="1822" y="-106.4" font-family="Times Roman,serif" font-size="14.00">nmap_mass_rdns(Target**, int)</text>
</g>
<!-- &lt;undefined 3&gt;&#45;&gt;nmap_mass_rdns(Target**, int) -->
<g id="edge16" class="edge"><title>&lt;undefined 3&gt;&#45;&gt;nmap_mass_rdns(Target**, int)</title>
<path fill="none" stroke="black" d="M1383.44,-157.255C1451.77,-151.311 1552.42,-142.053 1640,-132 1660.24,-129.676 1681.75,-127.139 1702.61,-124.64"/>
<polygon fill="black" stroke="black" points="1703.28,-128.085 1712.79,-123.417 1702.45,-121.135 1703.28,-128.085"/>
<text text-anchor="middle" x="1501" y="-159.4" font-family="Times Roman,serif" font-size="14.00">41</text>
</g>
<!-- nexthost(HostGroupState*, TargetGroup*, scan_lists.. -->
<g id="node10" class="node"><title>nexthost(HostGroupState*, TargetGroup*, scan_lists..</title>
<ellipse fill="none" stroke="black" cx="2325" cy="-110" rx="275.065" ry="18.3848"/>
<text text-anchor="middle" x="2325" y="-106.4" font-family="Times Roman,serif" font-size="14.00">nexthost(HostGroupState*, TargetGroup*, scan_lists..</text>
</g>
<!-- nmap_mass_rdns(Target**, int)&#45;&gt;nexthost(HostGroupState*, TargetGroup*, scan_lists.. -->
<g id="edge18" class="edge"><title>nmap_mass_rdns(Target**, int)&#45;&gt;nexthost(HostGroupState*, TargetGroup*, scan_lists..</title>
<path fill="none" stroke="black" d="M1985.66,-110C2003.08,-110 2021.14,-110 2039.45,-110"/>
<polygon fill="black" stroke="black" points="2039.65,-113.5 2049.65,-110 2039.65,-106.5 2039.65,-113.5"/>
<text text-anchor="middle" x="2018" y="-115.4" font-family="Times Roman,serif" font-size="14.00">227</text>
</g>
<!-- nexthost(HostGroupState*, TargetGroup*, scan_lists..&#45;&gt;nmap_main(int, char**) -->
<g id="edge20" class="edge"><title>nexthost(HostGroupState*, TargetGroup*, scan_lists..&#45;&gt;nmap_main(int, char**)</title>
<path fill="none" stroke="black" d="M2534.49,-98.312C2578.28,-95.8684 2623.2,-93.3624 2662.96,-91.144"/>
<polygon fill="black" stroke="black" points="2663.16,-94.6381 2672.95,-90.5864 2662.77,-87.649 2663.16,-94.6381"/>
<text text-anchor="middle" x="2632" y="-98.4" font-family="Times Roman,serif" font-size="14.00">227</text>
</g>
<!-- __nss_database_lookup -->
<g id="node12" class="node"><title>__nss_database_lookup</title>
<ellipse fill="none" stroke="black" cx="1073" cy="-18" rx="123.951" ry="18.3848"/>
<text text-anchor="middle" x="1073" y="-14.4" font-family="Times Roman,serif" font-size="14.00">__nss_database_lookup</text>
</g>
<!-- nss_parse_service_list&#45;&gt;__nss_database_lookup -->
<g id="edge24" class="edge"><title>nss_parse_service_list&#45;&gt;__nss_database_lookup</title>
<path fill="none" stroke="black" d="M738.133,-18C799.472,-18 874.683,-18 938.277,-18"/>
<polygon fill="black" stroke="black" points="938.38,-21.5001 948.38,-18 938.38,-14.5001 938.38,-21.5001"/>
<text text-anchor="middle" x="843" y="-23.4" font-family="Times Roman,serif" font-size="14.00">160</text>
</g>
<!-- &lt;undefined 4&gt; -->
<g id="node13" class="node"><title>&lt;undefined 4&gt;</title>
<ellipse fill="none" stroke="black" cx="1501" cy="-18" rx="85.7684" ry="18.3848"/>
<text text-anchor="middle" x="1501" y="-14.4" font-family="Times Roman,serif" font-size="14.00">&lt;undefined 4&gt;</text>
</g>
<!-- __nss_database_lookup&#45;&gt;&lt;undefined 4&gt; -->
<g id="edge26" class="edge"><title>__nss_database_lookup&#45;&gt;&lt;undefined 4&gt;</title>
<path fill="none" stroke="black" d="M1197.66,-18C1263.58,-18 1343.29,-18 1404.45,-18"/>
<polygon fill="black" stroke="black" points="1404.49,-21.5001 1414.49,-18 1404.49,-14.5001 1404.49,-21.5001"/>
<text text-anchor="middle" x="1303" y="-23.4" font-family="Times Roman,serif" font-size="14.00">160</text>
</g>
<!-- &lt;undefined 5&gt; -->
<g id="node14" class="node"><title>&lt;undefined 5&gt;</title>
<ellipse fill="none" stroke="black" cx="1822" cy="-18" rx="85.7684" ry="18.3848"/>
<text text-anchor="middle" x="1822" y="-14.4" font-family="Times Roman,serif" font-size="14.00">&lt;undefined 5&gt;</text>
</g>
<!-- &lt;undefined 4&gt;&#45;&gt;&lt;undefined 5&gt; -->
<g id="edge28" class="edge"><title>&lt;undefined 4&gt;&#45;&gt;&lt;undefined 5&gt;</title>
<path fill="none" stroke="black" d="M1587.87,-18C1630.33,-18 1681.57,-18 1725.27,-18"/>
<polygon fill="black" stroke="black" points="1725.34,-21.5001 1735.34,-18 1725.34,-14.5001 1725.34,-21.5001"/>
<text text-anchor="middle" x="1626" y="-23.4" font-family="Times Roman,serif" font-size="14.00">160</text>
</g>
<!-- getpwuid_r@@GLIBC_2.1.2 -->
<g id="node15" class="node"><title>getpwuid_r@@GLIBC_2.1.2</title>
<ellipse fill="none" stroke="black" cx="2325" cy="-18" rx="147.992" ry="18.3848"/>
<text text-anchor="middle" x="2325" y="-14.4" font-family="Times Roman,serif" font-size="14.00">getpwuid_r@@GLIBC_2.1.2</text>
</g>
<!-- &lt;undefined 5&gt;&#45;&gt;getpwuid_r@@GLIBC_2.1.2 -->
<g id="edge30" class="edge"><title>&lt;undefined 5&gt;&#45;&gt;getpwuid_r@@GLIBC_2.1.2</title>
<path fill="none" stroke="black" d="M1908.76,-18C1979.45,-18 2081.15,-18 2166.32,-18"/>
<polygon fill="black" stroke="black" points="2166.36,-21.5001 2176.36,-18 2166.36,-14.5001 2166.36,-21.5001"/>
<text text-anchor="middle" x="2018" y="-23.4" font-family="Times Roman,serif" font-size="14.00">160</text>
</g>
<!-- getpwuid -->
<g id="node16" class="node"><title>getpwuid</title>
<ellipse fill="none" stroke="black" cx="2791" cy="-18" rx="56.7776" ry="18.3848"/>
<text text-anchor="middle" x="2791" y="-14.4" font-family="Times Roman,serif" font-size="14.00">getpwuid</text>
</g>
<!-- getpwuid_r@@GLIBC_2.1.2&#45;&gt;getpwuid -->
<g id="edge32" class="edge"><title>getpwuid_r@@GLIBC_2.1.2&#45;&gt;getpwuid</title>
<path fill="none" stroke="black" d="M2473.73,-18C2557.54,-18 2658.17,-18 2723.29,-18"/>
<polygon fill="black" stroke="black" points="2723.43,-21.5001 2733.43,-18 2723.43,-14.5001 2723.43,-21.5001"/>
<text text-anchor="middle" x="2632" y="-23.4" font-family="Times Roman,serif" font-size="14.00">160</text>
</g>
<!-- nmap_fetchfile(char*, int, char const*) -->
<g id="node17" class="node"><title>nmap_fetchfile(char*, int, char const*)</title>
<ellipse fill="none" stroke="black" cx="3181" cy="-18" rx="198.197" ry="18.3848"/>
<text text-anchor="middle" x="3181" y="-14.4" font-family="Times Roman,serif" font-size="14.00">nmap_fetchfile(char*, int, char const*)</text>
</g>
<!-- getpwuid&#45;&gt;nmap_fetchfile(char*, int, char const*) -->
<g id="edge34" class="edge"><title>getpwuid&#45;&gt;nmap_fetchfile(char*, int, char const*)</title>
<path fill="none" stroke="black" d="M2848.55,-18C2882.1,-18 2926.71,-18 2972.32,-18"/>
<polygon fill="black" stroke="black" points="2972.38,-21.5001 2982.38,-18 2972.38,-14.5001 2972.38,-21.5001"/>
<text text-anchor="middle" x="2950" y="-23.4" font-family="Times Roman,serif" font-size="14.00">160</text>
</g>
<!-- NmapOps::Initialize() -->
<g id="node18" class="node"><title>NmapOps::Initialize()</title>
<ellipse fill="none" stroke="black" cx="3558" cy="-18" rx="113.844" ry="18.3848"/>
<text text-anchor="middle" x="3558" y="-14.4" font-family="Times Roman,serif" font-size="14.00">NmapOps::Initialize()</text>
</g>
<!-- nmap_fetchfile(char*, int, char const*)&#45;&gt;NmapOps::Initialize() -->
<g id="edge36" class="edge"><title>nmap_fetchfile(char*, int, char const*)&#45;&gt;NmapOps::Initialize()</title>
<path fill="none" stroke="black" d="M3379.71,-18C3398.08,-18 3416.32,-18 3433.73,-18"/>
<polygon fill="black" stroke="black" points="3433.87,-21.5001 3443.87,-18 3433.87,-14.5001 3433.87,-21.5001"/>
<text text-anchor="middle" x="3412" y="-23.4" font-family="Times Roman,serif" font-size="14.00">160</text>
</g>
<!-- NmapOps::NmapOps() -->
<g id="node19" class="node"><title>NmapOps::NmapOps()</title>
<ellipse fill="none" stroke="black" cx="3855" cy="-18" rx="118.794" ry="18.3848"/>
<text text-anchor="middle" x="3855" y="-14.4" font-family="Times Roman,serif" font-size="14.00">NmapOps::NmapOps()</text>
</g>
<!-- NmapOps::Initialize()&#45;&gt;NmapOps::NmapOps() -->
<g id="edge38" class="edge"><title>NmapOps::Initialize()&#45;&gt;NmapOps::NmapOps()</title>
<path fill="none" stroke="black" d="M3672.4,-18C3689.75,-18 3707.76,-18 3725.4,-18"/>
<polygon fill="black" stroke="black" points="3725.74,-21.5001 3735.74,-18 3725.74,-14.5001 3725.74,-21.5001"/>
<text text-anchor="middle" x="3704" y="-23.4" font-family="Times Roman,serif" font-size="14.00">160</text>
</g>
<!-- &lt;undefined 6&gt; -->
<g id="node20" class="node"><title>&lt;undefined 6&gt;</title>
<ellipse fill="none" stroke="black" cx="4125" cy="-18" rx="85.7684" ry="18.3848"/>
<text text-anchor="middle" x="4125" y="-14.4" font-family="Times Roman,serif" font-size="14.00">&lt;undefined 6&gt;</text>
</g>
<!-- NmapOps::NmapOps()&#45;&gt;&lt;undefined 6&gt; -->
<g id="edge40" class="edge"><title>NmapOps::NmapOps()&#45;&gt;&lt;undefined 6&gt;</title>
<path fill="none" stroke="black" d="M3974.21,-18C3992.28,-18 4010.73,-18 4028.24,-18"/>
<polygon fill="black" stroke="black" points="4028.44,-21.5001 4038.44,-18 4028.44,-14.5001 4028.44,-21.5001"/>
<text text-anchor="middle" x="4006" y="-23.4" font-family="Times Roman,serif" font-size="14.00">160</text>
</g>
<!-- &lt;undefined 7&gt; -->
<g id="node21" class="node"><title>&lt;undefined 7&gt;</title>
<ellipse fill="lightblue" stroke="lightblue" cx="4363" cy="-18" rx="85.7684" ry="18.3848"/>
<text text-anchor="middle" x="4363" y="-14.4" font-family="Times Roman,serif" font-size="14.00">&lt;undefined 7&gt;</text>
</g>
<!-- &lt;undefined 6&gt;&#45;&gt;&lt;undefined 7&gt; -->
<g id="edge42" class="edge"><title>&lt;undefined 6&gt;&#45;&gt;&lt;undefined 7&gt;</title>
<path fill="none" stroke="black" d="M4211.6,-18C4229.43,-18 4248.31,-18 4266.47,-18"/>
<polygon fill="black" stroke="black" points="4266.47,-21.5001 4276.47,-18 4266.47,-14.5001 4266.47,-21.5001"/>
<text text-anchor="middle" x="4244" y="-23.4" font-family="Times Roman,serif" font-size="14.00">160</text>
</g>
<!-- &lt;undefined 9&gt; -->
<g id="node23" class="node"><title>&lt;undefined 9&gt;</title>
<ellipse fill="none" stroke="black" cx="1073" cy="-110" rx="85.7684" ry="18.3848"/>
<text text-anchor="middle" x="1073" y="-106.4" font-family="Times Roman,serif" font-size="14.00">&lt;undefined 9&gt;</text>
</g>
<!-- &lt;undefined 8&gt;&#45;&gt;&lt;undefined 9&gt; -->
<g id="edge46" class="edge"><title>&lt;undefined 8&gt;&#45;&gt;&lt;undefined 9&gt;</title>
<path fill="none" stroke="black" d="M706.539,-110C783.623,-110 896.276,-110 976.299,-110"/>
<polygon fill="black" stroke="black" points="976.383,-113.5 986.383,-110 976.383,-106.5 976.383,-113.5"/>
<text text-anchor="middle" x="843" y="-115.4" font-family="Times Roman,serif" font-size="14.00">186</text>
</g>
<!-- &lt;undefined 10&gt; -->
<g id="node24" class="node"><title>&lt;undefined 10&gt;</title>
<ellipse fill="none" stroke="black" cx="1501" cy="-110" rx="92.1303" ry="18.3848"/>
<text text-anchor="middle" x="1501" y="-106.4" font-family="Times Roman,serif" font-size="14.00">&lt;undefined 10&gt;</text>
</g>
<!-- &lt;undefined 9&gt;&#45;&gt;&lt;undefined 10&gt; -->
<g id="edge48" class="edge"><title>&lt;undefined 9&gt;&#45;&gt;&lt;undefined 10&gt;</title>
<path fill="none" stroke="black" d="M1159.61,-110C1228.55,-110 1325.22,-110 1398.1,-110"/>
<polygon fill="black" stroke="black" points="1398.22,-113.5 1408.22,-110 1398.22,-106.5 1398.22,-113.5"/>
<text text-anchor="middle" x="1303" y="-115.4" font-family="Times Roman,serif" font-size="14.00">186</text>
</g>
<!-- &lt;undefined 10&gt;&#45;&gt;nmap_mass_rdns(Target**, int) -->
<g id="edge50" class="edge"><title>&lt;undefined 10&gt;&#45;&gt;nmap_mass_rdns(Target**, int)</title>
<path fill="none" stroke="black" d="M1593.85,-110C1611.03,-110 1629.49,-110 1648.18,-110"/>
<polygon fill="black" stroke="black" points="1648.28,-113.5 1658.28,-110 1648.28,-106.5 1648.28,-113.5"/>
<text text-anchor="middle" x="1626" y="-115.4" font-family="Times Roman,serif" font-size="14.00">186</text>
</g>
</g>
</svg>
