<?xml version="1.0" encoding="UTF-8" standalone="no"?>
<!DOCTYPE svg PUBLIC "-//W3C//DTD SVG 1.1//EN"
 "http://www.w3.org/Graphics/SVG/1.1/DTD/svg11.dtd">
<!-- Generated by graphviz version 2.26.3 (20100126.1600)
 -->
<!-- Title: Leak_DefinitelyLost Pages: 1 -->
<svg width="4418pt" height="190pt"
 viewBox="0.00 0.00 4418.00 190.00" xmlns="http://www.w3.org/2000/svg" xmlns:xlink="http://www.w3.org/1999/xlink">
<g id="graph1" class="graph" transform="scale(1 1) rotate(0) translate(4 186)">
<title>Leak_DefinitelyLost</title>
<polygon fill="white" stroke="white" points="-4,5 -4,-186 4415,-186 4415,5 -4,5"/>
<!-- &lt;undefined 2&gt; -->
<g id="node1" class="node"><title>&lt;undefined 2&gt;</title>
<ellipse fill="none" stroke="black" cx="620" cy="-72" rx="85.7684" ry="18.3848"/>
<text text-anchor="middle" x="620" y="-68.4" font-family="Times Roman,serif" font-size="14.00">&lt;undefined 2&gt;</text>
</g>
<!-- &lt;undefined 3&gt; -->
<g id="node3" class="node"><title>&lt;undefined 3&gt;</title>
<ellipse fill="none" stroke="black" cx="1263" cy="-72" rx="85.7684" ry="18.3848"/>
<text text-anchor="middle" x="1263" y="-68.4" font-family="Times Roman,serif" font-size="14.00">&lt;undefined 3&gt;</text>
</g>
<!-- &lt;undefined 2&gt;&#45;&gt;&lt;undefined 3&gt; -->
<g id="edge2" class="edge"><title>&lt;undefined 2&gt;&#45;&gt;&lt;undefined 3&gt;</title>
<path fill="none" stroke="black" d="M706.718,-72C826.333,-72 1041.29,-72 1166.07,-72"/>
<polygon fill="black" stroke="black" points="1166.37,-75.5001 1176.37,-72 1166.37,-68.5001 1166.37,-75.5001"/>
<text text-anchor="middle" x="823" y="-77.4" font-family="Times Roman,serif" font-size="14.00">41</text>
</g>
<!-- nmap_main(int, char**) -->
<g id="node2" class="node"><title>nmap_main(int, char**)</title>
<ellipse fill="none" stroke="black" cx="2751" cy="-95" rx="126.072" ry="18.3848"/>
<text text-anchor="middle" x="2751" y="-91.4" font-family="Times Roman,serif" font-size="14.00">nmap_main(int, char**)</text>
</g>
<!-- main -->
<g id="node9" class="node"><title>main</title>
<ellipse fill="lightblue" stroke="lightblue" cx="3141" cy="-95" rx="34.8574" ry="18.3848"/>
<text text-anchor="middle" x="3141" y="-91.4" font-family="Times Roman,serif" font-size="14.00">main</text>
</g>
<!-- nmap_main(int, char**)&#45;&gt;main -->
<g id="edge46" class="edge"><title>nmap_main(int, char**)&#45;&gt;main</title>
<path fill="none" stroke="black" d="M2877.62,-95C2952.27,-95 3042.23,-95 3095.34,-95"/>
<polygon fill="black" stroke="black" points="3095.46,-98.5001 3105.46,-95 3095.46,-91.5001 3095.46,-98.5001"/>
<text text-anchor="middle" x="2910" y="-100.4" font-family="Times Roman,serif" font-size="14.00">270</text>
</g>
<!-- nmap_mass_rdns(Target**, int) -->
<g id="node7" class="node"><title>nmap_mass_rdns(Target**, int)</title>
<ellipse fill="none" stroke="black" cx="1782" cy="-72" rx="162.842" ry="18.3848"/>
<text text-anchor="middle" x="1782" y="-68.4" font-family="Times Roman,serif" font-size="14.00">nmap_mass_rdns(Target**, int)</text>
</g>
<!-- &lt;undefined 3&gt;&#45;&gt;nmap_mass_rdns(Target**, int) -->
<g id="edge14" class="edge"><title>&lt;undefined 3&gt;&#45;&gt;nmap_mass_rdns(Target**, int)</title>
<path fill="none" stroke="black" d="M1349.58,-72C1419.83,-72 1521.13,-72 1608.02,-72"/>
<polygon fill="black" stroke="black" points="1608.27,-75.5001 1618.27,-72 1608.27,-68.5001 1608.27,-75.5001"/>
<text text-anchor="middle" x="1461" y="-77.4" font-family="Times Roman,serif" font-size="14.00">41</text>
</g>
<!-- &lt;undefined 10&gt; -->
<g id="node4" class="node"><title>&lt;undefined 10&gt;</title>
<ellipse fill="none" stroke="black" cx="1461" cy="-18" rx="92.1303" ry="18.3848"/>
<text text-anchor="middle" x="1461" y="-14.4" font-family="Times Roman,serif" font-size="14.00">&lt;undefined 10&gt;</text>
</g>
<!-- &lt;undefined 10&gt;&#45;&gt;nmap_mass_rdns(Target**, int) -->
<g id="edge4" class="edge"><title>&lt;undefined 10&gt;&#45;&gt;nmap_mass_rdns(Target**, int)</title>
<path fill="none" stroke="black" d="M1533.54,-29.2414C1554.96,-32.6247 1578.43,-36.3973 1600,-40 1628.04,-44.684 1658.48,-49.9596 1686.29,-54.856"/>
<polygon fill="black" stroke="black" points="1685.95,-58.3505 1696.41,-56.641 1687.17,-51.4569 1685.95,-58.3505"/>
<text text-anchor="middle" x="1586" y="-45.4" font-family="Times Roman,serif" font-size="14.00">186</text>
</g>
<!-- malloc -->
<g id="node5" class="node"><title>malloc</title>
<ellipse fill="none" stroke="black" cx="292" cy="-120" rx="41.9273" ry="18.3848"/>
<text text-anchor="middle" x="292" y="-116.4" font-family="Times Roman,serif" font-size="14.00">malloc</text>
</g>
<!-- nss_parse_service_list -->
<g id="node6" class="node"><title>nss_parse_service_list</title>
<ellipse fill="none" stroke="black" cx="620" cy="-164" rx="118.087" ry="18.3848"/>
<text text-anchor="middle" x="620" y="-160.4" font-family="Times Roman,serif" font-size="14.00">nss_parse_service_list</text>
</g>
<!-- malloc&#45;&gt;nss_parse_service_list -->
<g id="edge18" class="edge"><title>malloc&#45;&gt;nss_parse_service_list</title>
<path fill="none" stroke="black" d="M332.548,-125.439C379.323,-131.714 457.9,-142.255 521.088,-150.731"/>
<polygon fill="black" stroke="black" points="520.714,-154.212 531.09,-152.073 521.644,-147.275 520.714,-154.212"/>
<text text-anchor="middle" x="470" y="-149.4" font-family="Times Roman,serif" font-size="14.00">160</text>
</g>
<!-- safe_malloc -->
<g id="node12" class="node"><title>safe_malloc</title>
<ellipse fill="none" stroke="black" cx="823" cy="-118" rx="67.1751" ry="18.3848"/>
<text text-anchor="middle" x="823" y="-114.4" font-family="Times Roman,serif" font-size="14.00">safe_malloc</text>
</g>
<!-- malloc&#45;&gt;safe_malloc -->
<g id="edge48" class="edge"><title>malloc&#45;&gt;safe_malloc</title>
<path fill="none" stroke="black" d="M334.556,-119.84C423.902,-119.503 632.122,-118.719 745.715,-118.291"/>
<polygon fill="black" stroke="black" points="745.749,-121.791 755.736,-118.253 745.723,-114.791 745.749,-121.791"/>
<text text-anchor="middle" x="470" y="-124.4" font-family="Times Roman,serif" font-size="14.00">43</text>
</g>
<!-- __nss_database_lookup -->
<g id="node18" class="node"><title>__nss_database_lookup</title>
<ellipse fill="none" stroke="black" cx="1033" cy="-164" rx="123.951" ry="18.3848"/>
<text text-anchor="middle" x="1033" y="-160.4" font-family="Times Roman,serif" font-size="14.00">__nss_database_lookup</text>
</g>
<!-- nss_parse_service_list&#45;&gt;__nss_database_lookup -->
<g id="edge44" class="edge"><title>nss_parse_service_list&#45;&gt;__nss_database_lookup</title>
<path fill="none" stroke="black" d="M738.073,-164C788.023,-164 846.484,-164 898.124,-164"/>
<polygon fill="black" stroke="black" points="898.356,-167.5 908.356,-164 898.356,-160.5 898.356,-167.5"/>
<text text-anchor="middle" x="823" y="-169.4" font-family="Times Roman,serif" font-size="14.00">160</text>
</g>
<!-- nexthost(HostGroupState*, TargetGroup*, scan_lists.. -->
<g id="node10" class="node"><title>nexthost(HostGroupState*, TargetGroup*, scan_lists..</title>
<ellipse fill="none" stroke="black" cx="2285" cy="-72" rx="275.065" ry="18.3848"/>
<text text-anchor="middle" x="2285" y="-68.4" font-family="Times Roman,serif" font-size="14.00">nexthost(HostGroupState*, TargetGroup*, scan_lists..</text>
</g>
<!-- nmap_mass_rdns(Target**, int)&#45;&gt;nexthost(HostGroupState*, TargetGroup*, scan_lists.. -->
<g id="edge38" class="edge"><title>nmap_mass_rdns(Target**, int)&#45;&gt;nexthost(HostGroupState*, TargetGroup*, scan_lists..</title>
<path fill="none" stroke="black" d="M1945.66,-72C1963.08,-72 1981.14,-72 1999.45,-72"/>
<polygon fill="black" stroke="black" points="1999.65,-75.5001 2009.65,-72 1999.65,-68.5001 1999.65,-75.5001"/>
<text text-anchor="middle" x="1978" y="-77.4" font-family="Times Roman,serif" font-size="14.00">227</text>
</g>
<!-- getpwuid_r@@GLIBC_2.1.2 -->
<g id="node8" class="node"><title>getpwuid_r@@GLIBC_2.1.2</title>
<ellipse fill="none" stroke="black" cx="2285" cy="-164" rx="147.992" ry="18.3848"/>
<text text-anchor="middle" x="2285" y="-160.4" font-family="Times Roman,serif" font-size="14.00">getpwuid_r@@GLIBC_2.1.2</text>
</g>
<!-- getpwuid -->
<g id="node16" class="node"><title>getpwuid</title>
<ellipse fill="none" stroke="black" cx="2751" cy="-164" rx="56.7776" ry="18.3848"/>
<text text-anchor="middle" x="2751" y="-160.4" font-family="Times Roman,serif" font-size="14.00">getpwuid</text>
</g>
<!-- getpwuid_r@@GLIBC_2.1.2&#45;&gt;getpwuid -->
<g id="edge26" class="edge"><title>getpwuid_r@@GLIBC_2.1.2&#45;&gt;getpwuid</title>
<path fill="none" stroke="black" d="M2433.73,-164C2517.54,-164 2618.17,-164 2683.29,-164"/>
<polygon fill="black" stroke="black" points="2683.43,-167.5 2693.43,-164 2683.43,-160.5 2683.43,-167.5"/>
<text text-anchor="middle" x="2592" y="-169.4" font-family="Times Roman,serif" font-size="14.00">160</text>
</g>
<!-- nexthost(HostGroupState*, TargetGroup*, scan_lists..&#45;&gt;nmap_main(int, char**) -->
<g id="edge22" class="edge"><title>nexthost(HostGroupState*, TargetGroup*, scan_lists..&#45;&gt;nmap_main(int, char**)</title>
<path fill="none" stroke="black" d="M2517.77,-81.6466C2547.47,-83.026 2577.45,-84.4916 2606,-86 2612.28,-86.3319 2618.71,-86.6845 2625.21,-87.0507"/>
<polygon fill="black" stroke="black" points="2625.27,-90.5599 2635.46,-87.6362 2625.67,-83.5713 2625.27,-90.5599"/>
<text text-anchor="middle" x="2592" y="-91.4" font-family="Times Roman,serif" font-size="14.00">227</text>
</g>
<!-- ROOT -->
<g id="node11" class="node"><title>ROOT</title>
<ellipse fill="none" stroke="black" cx="41" cy="-94" rx="41.0122" ry="18.3848"/>
<text text-anchor="middle" x="41" y="-90.4" font-family="Times Roman,serif" font-size="14.00">ROOT</text>
</g>
<!-- ROOT&#45;&gt;malloc -->
<g id="edge50" class="edge"><title>ROOT&#45;&gt;malloc</title>
<path fill="none" stroke="black" d="M81.0492,-98.1485C124.246,-102.623 193.164,-109.762 240.394,-114.654"/>
<polygon fill="black" stroke="black" points="240.115,-118.144 250.422,-115.693 240.836,-111.181 240.115,-118.144"/>
<text text-anchor="middle" x="114" y="-107.4" font-family="Times Roman,serif" font-size="14.00">203</text>
</g>
<!-- operator new(unsigned int) -->
<g id="node15" class="node"><title>operator new(unsigned int)</title>
<ellipse fill="none" stroke="black" cx="292" cy="-66" rx="145.163" ry="18.3848"/>
<text text-anchor="middle" x="292" y="-62.4" font-family="Times Roman,serif" font-size="14.00">operator new(unsigned int)</text>
</g>
<!-- ROOT&#45;&gt;operator new(unsigned int) -->
<g id="edge36" class="edge"><title>ROOT&#45;&gt;operator new(unsigned int)</title>
<path fill="none" stroke="black" d="M74.7484,-83.5892C82.9424,-81.4122 91.7277,-79.3657 100,-78 113.855,-75.7126 128.339,-73.8528 142.871,-72.3419"/>
<polygon fill="black" stroke="black" points="143.323,-75.8144 152.931,-71.3507 142.636,-68.8481 143.323,-75.8144"/>
<text text-anchor="middle" x="114" y="-83.4" font-family="Times Roman,serif" font-size="14.00">227</text>
</g>
<!-- safe_malloc&#45;&gt;nmap_main(int, char**) -->
<g id="edge12" class="edge"><title>safe_malloc&#45;&gt;nmap_main(int, char**)</title>
<path fill="none" stroke="black" d="M890.089,-118C976.368,-118 1130.85,-118 1263,-118 1263,-118 1263,-118 2285,-118 2402.03,-118 2535.4,-110.674 2629.39,-104.291"/>
<polygon fill="black" stroke="black" points="2629.76,-107.773 2639.5,-103.597 2629.28,-100.789 2629.76,-107.773"/>
<text text-anchor="middle" x="1586" y="-123.4" font-family="Times Roman,serif" font-size="14.00">43</text>
</g>
<!-- nmap_fetchfile(char*, int, char const*) -->
<g id="node13" class="node"><title>nmap_fetchfile(char*, int, char const*)</title>
<ellipse fill="none" stroke="black" cx="3141" cy="-164" rx="198.197" ry="18.3848"/>
<text text-anchor="middle" x="3141" y="-160.4" font-family="Times Roman,serif" font-size="14.00">nmap_fetchfile(char*, int, char const*)</text>
</g>
<!-- NmapOps::Initialize() -->
<g id="node21" class="node"><title>NmapOps::Initialize()</title>
<ellipse fill="none" stroke="black" cx="3518" cy="-164" rx="113.844" ry="18.3848"/>
<text text-anchor="middle" x="3518" y="-160.4" font-family="Times Roman,serif" font-size="14.00">NmapOps::Initialize()</text>
</g>
<!-- nmap_fetchfile(char*, int, char const*)&#45;&gt;NmapOps::Initialize() -->
<g id="edge30" class="edge"><title>nmap_fetchfile(char*, int, char const*)&#45;&gt;NmapOps::Initialize()</title>
<path fill="none" stroke="black" d="M3339.71,-164C3358.08,-164 3376.32,-164 3393.73,-164"/>
<polygon fill="black" stroke="black" points="3393.87,-167.5 3403.87,-164 3393.87,-160.5 3393.87,-167.5"/>
<text text-anchor="middle" x="3372" y="-169.4" font-family="Times Roman,serif" font-size="14.00">160</text>
</g>
<!-- &lt;undefined 6&gt; -->
<g id="node14" class="node"><title>&lt;undefined 6&gt;</title>
<ellipse fill="none" stroke="black" cx="4085" cy="-164" rx="85.7684" ry="18.3848"/>
<text text-anchor="middle" x="4085" y="-160.4" font-family="Times Roman,serif" font-size="14.00">&lt;undefined 6&gt;</text>
</g>
<!-- &lt;undefined 7&gt; -->
<g id="node23" class="node"><title>&lt;undefined 7&gt;</title>
<ellipse fill="lightblue" stroke="lightblue" cx="4323" cy="-164" rx="85.7684" ry="18.3848"/>
<text text-anchor="middle" x="4323" y="-160.4" font-family="Times Roman,serif" font-size="14.00">&lt;undefined 7&gt;</text>
</g>
<!-- &lt;undefined 6&gt;&#45;&gt;&lt;undefined 7&gt; -->
<g id="edge10" class="edge"><title>&lt;undefined 6&gt;&#45;&gt;&lt;undefined 7&gt;</title>
<path fill="none" stroke="black" d="M4171.6,-164C4189.43,-164 4208.31,-164 4226.47,-164"/>
<polygon fill="black" stroke="black" points="4226.47,-167.5 4236.47,-164 4226.47,-160.5 4226.47,-167.5"/>
<text text-anchor="middle" x="4204" y="-169.4" font-family="Times Roman,serif" font-size="14.00">160</text>
</g>
<!-- operator new(unsigned int)&#45;&gt;&lt;undefined 2&gt; -->
<g id="edge40" class="edge"><title>operator new(unsigned int)&#45;&gt;&lt;undefined 2&gt;</title>
<path fill="none" stroke="black" d="M436.343,-68.6404C465.757,-69.1785 496.026,-69.7322 523.293,-70.231"/>
<polygon fill="black" stroke="black" points="523.526,-73.7357 533.588,-70.4193 523.654,-66.7369 523.526,-73.7357"/>
<text text-anchor="middle" x="470" y="-75.4" font-family="Times Roman,serif" font-size="14.00">41</text>
</g>
<!-- &lt;undefined 8&gt; -->
<g id="node17" class="node"><title>&lt;undefined 8&gt;</title>
<ellipse fill="none" stroke="black" cx="620" cy="-18" rx="85.7684" ry="18.3848"/>
<text text-anchor="middle" x="620" y="-14.4" font-family="Times Roman,serif" font-size="14.00">&lt;undefined 8&gt;</text>
</g>
<!-- operator new(unsigned int)&#45;&gt;&lt;undefined 8&gt; -->
<g id="edge32" class="edge"><title>operator new(unsigned int)&#45;&gt;&lt;undefined 8&gt;</title>
<path fill="none" stroke="black" d="M385.992,-52.2451C434.403,-45.1605 492.834,-36.6096 539.198,-29.8247"/>
<polygon fill="black" stroke="black" points="539.813,-33.2721 549.2,-28.3609 538.799,-26.3459 539.813,-33.2721"/>
<text text-anchor="middle" x="470" y="-47.4" font-family="Times Roman,serif" font-size="14.00">186</text>
</g>
<!-- getpwuid&#45;&gt;nmap_fetchfile(char*, int, char const*) -->
<g id="edge20" class="edge"><title>getpwuid&#45;&gt;nmap_fetchfile(char*, int, char const*)</title>
<path fill="none" stroke="black" d="M2808.55,-164C2842.1,-164 2886.71,-164 2932.32,-164"/>
<polygon fill="black" stroke="black" points="2932.38,-167.5 2942.38,-164 2932.38,-160.5 2932.38,-167.5"/>
<text text-anchor="middle" x="2910" y="-169.4" font-family="Times Roman,serif" font-size="14.00">160</text>
</g>
<!-- &lt;undefined 9&gt; -->
<g id="node20" class="node"><title>&lt;undefined 9&gt;</title>
<ellipse fill="none" stroke="black" cx="1033" cy="-18" rx="85.7684" ry="18.3848"/>
<text text-anchor="middle" x="1033" y="-14.4" font-family="Times Roman,serif" font-size="14.00">&lt;undefined 9&gt;</text>
</g>
<!-- &lt;undefined 8&gt;&#45;&gt;&lt;undefined 9&gt; -->
<g id="edge42" class="edge"><title>&lt;undefined 8&gt;&#45;&gt;&lt;undefined 9&gt;</title>
<path fill="none" stroke="black" d="M706.578,-18C773.648,-18 866.547,-18 936.095,-18"/>
<polygon fill="black" stroke="black" points="936.181,-21.5001 946.181,-18 936.181,-14.5001 936.181,-21.5001"/>
<text text-anchor="middle" x="823" y="-23.4" font-family="Times Roman,serif" font-size="14.00">186</text>
</g>
<!-- &lt;undefined 4&gt; -->
<g id="node24" class="node"><title>&lt;undefined 4&gt;</title>
<ellipse fill="none" stroke="black" cx="1461" cy="-164" rx="85.7684" ry="18.3848"/>
<text text-anchor="middle" x="1461" y="-160.4" font-family="Times Roman,serif" font-size="14.00">&lt;undefined 4&gt;</text>
</g>
<!-- __nss_database_lookup&#45;&gt;&lt;undefined 4&gt; -->
<g id="edge8" class="edge"><title>__nss_database_lookup&#45;&gt;&lt;undefined 4&gt;</title>
<path fill="none" stroke="black" d="M1157.66,-164C1223.58,-164 1303.29,-164 1364.45,-164"/>
<polygon fill="black" stroke="black" points="1364.49,-167.5 1374.49,-164 1364.49,-160.5 1364.49,-167.5"/>
<text text-anchor="middle" x="1263" y="-169.4" font-family="Times Roman,serif" font-size="14.00">160</text>
</g>
<!-- NmapOps::NmapOps() -->
<g id="node19" class="node"><title>NmapOps::NmapOps()</title>
<ellipse fill="none" stroke="black" cx="3815" cy="-164" rx="118.794" ry="18.3848"/>
<text text-anchor="middle" x="3815" y="-160.4" font-family="Times Roman,serif" font-size="14.00">NmapOps::NmapOps()</text>
</g>
<!-- NmapOps::NmapOps()&#45;&gt;&lt;undefined 6&gt; -->
<g id="edge6" class="edge"><title>NmapOps::NmapOps()&#45;&gt;&lt;undefined 6&gt;</title>
<path fill="none" stroke="black" d="M3934.21,-164C3952.28,-164 3970.73,-164 3988.24,-164"/>
<polygon fill="black" stroke="black" points="3988.44,-167.5 3998.44,-164 3988.44,-160.5 3988.44,-167.5"/>
<text text-anchor="middle" x="3966" y="-169.4" font-family="Times Roman,serif" font-size="14.00">160</text>
</g>
<!-- &lt;undefined 9&gt;&#45;&gt;&lt;undefined 10&gt; -->
<g id="edge24" class="edge"><title>&lt;undefined 9&gt;&#45;&gt;&lt;undefined 10&gt;</title>
<path fill="none" stroke="black" d="M1119.61,-18C1188.55,-18 1285.22,-18 1358.1,-18"/>
<polygon fill="black" stroke="black" points="1358.22,-21.5001 1368.22,-18 1358.22,-14.5001 1358.22,-21.5001"/>
<text text-anchor="middle" x="1263" y="-23.4" font-family="Times Roman,serif" font-size="14.00">186</text>
</g>
<!-- NmapOps::Initialize()&#45;&gt;NmapOps::NmapOps() -->
<g id="edge16" class="edge"><title>NmapOps::Initialize()&#45;&gt;NmapOps::NmapOps()</title>
<path fill="none" stroke="black" d="M3632.4,-164C3649.75,-164 3667.76,-164 3685.4,-164"/>
<polygon fill="black" stroke="black" points="3685.74,-167.5 3695.74,-164 3685.74,-160.5 3685.74,-167.5"/>
<text text-anchor="middle" x="3664" y="-169.4" font-family="Times Roman,serif" font-size="14.00">160</text>
</g>
<!-- &lt;undefined 5&gt; -->
<g id="node22" class="node"><title>&lt;undefined 5&gt;</title>
<ellipse fill="none" stroke="black" cx="1782" cy="-164" rx="85.7684" ry="18.3848"/>
<text text-anchor="middle" x="1782" y="-160.4" font-family="Times Roman,serif" font-size="14.00">&lt;undefined 5&gt;</text>
</g>
<!-- &lt;undefined 5&gt;&#45;&gt;getpwuid_r@@GLIBC_2.1.2 -->
<g id="edge28" class="edge"><title>&lt;undefined 5&gt;&#45;&gt;getpwuid_r@@GLIBC_2.1.2</title>
<path fill="none" stroke="black" d="M1868.76,-164C1939.45,-164 2041.15,-164 2126.32,-164"/>
<polygon fill="black" stroke="black" points="2126.36,-167.5 2136.36,-164 2126.36,-160.5 2126.36,-167.5"/>
<text text-anchor="middle" x="1978" y="-169.4" font-family="Times Roman,serif" font-size="14.00">160</text>
</g>
<!-- &lt;undefined 4&gt;&#45;&gt;&lt;undefined 5&gt; -->
<g id="edge34" class="edge"><title>&lt;undefined 4&gt;&#45;&gt;&lt;undefined 5&gt;</title>
<path fill="none" stroke="black" d="M1547.87,-164C1590.33,-164 1641.57,-164 1685.27,-164"/>
<polygon fill="black" stroke="black" points="1685.34,-167.5 1695.34,-164 1685.34,-160.5 1685.34,-167.5"/>
<text text-anchor="middle" x="1586" y="-169.4" font-family="Times Roman,serif" font-size="14.00">160</text>
</g>
</g>
</svg>
