<?xml version="1.0" encoding="UTF-8" standalone="no"?>
<!DOCTYPE svg PUBLIC "-//W3C//DTD SVG 1.1//EN"
 "http://www.w3.org/Graphics/SVG/1.1/DTD/svg11.dtd">
<!-- Generated by graphviz version 2.26.3 (20100126.1600)
 -->
<!-- Title: Leak_DefinitelyLost Pages: 1 -->
<svg width="4418pt" height="190pt"
 viewBox="0.00 0.00 4418.00 190.00" xmlns="http://www.w3.org/2000/svg" xmlns:xlink="http://www.w3.org/1999/xlink">
<g id="graph1" class="graph" transform="scale(1 1) rotate(0) translate(4 186)">
<title>Leak_DefinitelyLost</title>
<polygon fill="white" stroke="white" points="-4,5 -4,-186 4415,-186 4415,5 -4,5"/>
<!-- ROOT -->
<g id="node1" class="node"><title>ROOT</title>
<ellipse fill="none" stroke="black" cx="41" cy="-90" rx="41.0122" ry="18.3848"/>
<text text-anchor="middle" x="41" y="-86.4" font-family="Times Roman,serif" font-size="14.00">ROOT</text>
</g>
<!-- operator new(unsigned int) -->
<g id="node2" class="node"><title>operator new(unsigned int)</title>
<ellipse fill="none" stroke="black" cx="292" cy="-116" rx="145.163" ry="18.3848"/>
<text text-anchor="middle" x="292" y="-112.4" font-family="Times Roman,serif" font-size="14.00">operator new(unsigned int)</text>
</g>
<!-- ROOT&#45;&gt;operator new(unsigned int) -->
<g id="edge2" class="edge"><title>ROOT&#45;&gt;operator new(unsigned int)</title>
<path fill="none" stroke="black" d="M81.0492,-94.1485C105.446,-96.6756 138.046,-100.053 170.311,-103.395"/>
<polygon fill="black" stroke="black" points="169.996,-106.881 180.304,-104.43 170.717,-99.918 169.996,-106.881"/>
<text text-anchor="middle" x="114" y="-103.4" font-family="Times Roman,serif" font-size="14.00">227</text>
</g>
<!-- malloc -->
<g id="node9" class="node"><title>malloc</title>
<ellipse fill="none" stroke="black" cx="292" cy="-62" rx="41.9273" ry="18.3848"/>
<text text-anchor="middle" x="292" y="-58.4" font-family="Times Roman,serif" font-size="14.00">malloc</text>
</g>
<!-- ROOT&#45;&gt;malloc -->
<g id="edge16" class="edge"><title>ROOT&#45;&gt;malloc</title>
<path fill="none" stroke="black" d="M74.7484,-79.5892C82.9424,-77.4122 91.7277,-75.3657 100,-74 146.735,-66.2843 200.617,-63.4347 239.382,-62.4275"/>
<polygon fill="black" stroke="black" points="239.479,-65.9263 249.396,-62.1995 239.319,-58.9281 239.479,-65.9263"/>
<text text-anchor="middle" x="114" y="-79.4" font-family="Times Roman,serif" font-size="14.00">203</text>
</g>
<!-- &lt;undefined 2&gt; -->
<g id="node3" class="node"><title>&lt;undefined 2&gt;</title>
<ellipse fill="none" stroke="black" cx="620" cy="-164" rx="85.7684" ry="18.3848"/>
<text text-anchor="middle" x="620" y="-160.4" font-family="Times Roman,serif" font-size="14.00">&lt;undefined 2&gt;</text>
</g>
<!-- operator new(unsigned int)&#45;&gt;&lt;undefined 2&gt; -->
<g id="edge4" class="edge"><title>operator new(unsigned int)&#45;&gt;&lt;undefined 2&gt;</title>
<path fill="none" stroke="black" d="M385.992,-129.755C434.403,-136.839 492.834,-145.39 539.198,-152.175"/>
<polygon fill="black" stroke="black" points="538.799,-155.654 549.2,-153.639 539.813,-148.728 538.799,-155.654"/>
<text text-anchor="middle" x="470" y="-147.4" font-family="Times Roman,serif" font-size="14.00">41</text>
</g>
<!-- &lt;undefined 8&gt; -->
<g id="node22" class="node"><title>&lt;undefined 8&gt;</title>
<ellipse fill="none" stroke="black" cx="620" cy="-110" rx="85.7684" ry="18.3848"/>
<text text-anchor="middle" x="620" y="-106.4" font-family="Times Roman,serif" font-size="14.00">&lt;undefined 8&gt;</text>
</g>
<!-- operator new(unsigned int)&#45;&gt;&lt;undefined 8&gt; -->
<g id="edge44" class="edge"><title>operator new(unsigned int)&#45;&gt;&lt;undefined 8&gt;</title>
<path fill="none" stroke="black" d="M436.343,-113.36C465.757,-112.822 496.026,-112.268 523.293,-111.769"/>
<polygon fill="black" stroke="black" points="523.654,-115.263 533.588,-111.581 523.526,-108.264 523.654,-115.263"/>
<text text-anchor="middle" x="470" y="-118.4" font-family="Times Roman,serif" font-size="14.00">186</text>
</g>
<!-- &lt;undefined 3&gt; -->
<g id="node4" class="node"><title>&lt;undefined 3&gt;</title>
<ellipse fill="none" stroke="black" cx="1263" cy="-164" rx="85.7684" ry="18.3848"/>
<text text-anchor="middle" x="1263" y="-160.4" font-family="Times Roman,serif" font-size="14.00">&lt;undefined 3&gt;</text>
</g>
<!-- &lt;undefined 2&gt;&#45;&gt;&lt;undefined 3&gt; -->
<g id="edge6" class="edge"><title>&lt;undefined 2&gt;&#45;&gt;&lt;undefined 3&gt;</title>
<path fill="none" stroke="black" d="M706.718,-164C826.333,-164 1041.29,-164 1166.07,-164"/>
<polygon fill="black" stroke="black" points="1166.37,-167.5 1176.37,-164 1166.37,-160.5 1166.37,-167.5"/>
<text text-anchor="middle" x="823" y="-169.4" font-family="Times Roman,serif" font-size="14.00">41</text>
</g>
<!-- nmap_mass_rdns(Target**, int) -->
<g id="node5" class="node"><title>nmap_mass_rdns(Target**, int)</title>
<ellipse fill="none" stroke="black" cx="1782" cy="-110" rx="162.842" ry="18.3848"/>
<text text-anchor="middle" x="1782" y="-106.4" font-family="Times Roman,serif" font-size="14.00">nmap_mass_rdns(Target**, int)</text>
</g>
<!-- &lt;undefined 3&gt;&#45;&gt;nmap_mass_rdns(Target**, int) -->
<g id="edge8" class="edge"><title>&lt;undefined 3&gt;&#45;&gt;nmap_mass_rdns(Target**, int)</title>
<path fill="none" stroke="black" d="M1343.44,-157.255C1411.77,-151.311 1512.42,-142.053 1600,-132 1620.24,-129.676 1641.75,-127.139 1662.61,-124.64"/>
<polygon fill="black" stroke="black" points="1663.28,-128.085 1672.79,-123.417 1662.45,-121.135 1663.28,-128.085"/>
<text text-anchor="middle" x="1461" y="-159.4" font-family="Times Roman,serif" font-size="14.00">41</text>
</g>
<!-- nexthost(HostGroupState*, TargetGroup*, scan_lists.. -->
<g id="node6" class="node"><title>nexthost(HostGroupState*, TargetGroup*, scan_lists..</title>
<ellipse fill="none" stroke="black" cx="2285" cy="-110" rx="275.065" ry="18.3848"/>
<text text-anchor="middle" x="2285" y="-106.4" font-family="Times Roman,serif" font-size="14.00">nexthost(HostGroupState*, TargetGroup*, scan_lists..</text>
</g>
<!-- nmap_mass_rdns(Target**, int)&#45;&gt;nexthost(HostGroupState*, TargetGroup*, scan_lists.. -->
<g id="edge10" class="edge"><title>nmap_mass_rdns(Target**, int)&#45;&gt;nexthost(HostGroupState*, TargetGroup*, scan_lists..</title>
<path fill="none" stroke="black" d="M1945.66,-110C1963.08,-110 1981.14,-110 1999.45,-110"/>
<polygon fill="black" stroke="black" points="1999.65,-113.5 2009.65,-110 1999.65,-106.5 1999.65,-113.5"/>
<text text-anchor="middle" x="1978" y="-115.4" font-family="Times Roman,serif" font-size="14.00">227</text>
</g>
<!-- nmap_main(int, char**) -->
<g id="node7" class="node"><title>nmap_main(int, char**)</title>
<ellipse fill="none" stroke="black" cx="2751" cy="-87" rx="126.072" ry="18.3848"/>
<text text-anchor="middle" x="2751" y="-83.4" font-family="Times Roman,serif" font-size="14.00">nmap_main(int, char**)</text>
</g>
<!-- nexthost(HostGroupState*, TargetGroup*, scan_lists..&#45;&gt;nmap_main(int, char**) -->
<g id="edge12" class="edge"><title>nexthost(HostGroupState*, TargetGroup*, scan_lists..&#45;&gt;nmap_main(int, char**)</title>
<path fill="none" stroke="black" d="M2504.7,-99.1567C2544.58,-97.1881 2584.99,-95.1938 2621.22,-93.4055"/>
<polygon fill="black" stroke="black" points="2621.51,-96.8956 2631.32,-92.9068 2621.16,-89.9041 2621.51,-96.8956"/>
<text text-anchor="middle" x="2592" y="-100.4" font-family="Times Roman,serif" font-size="14.00">227</text>
</g>
<!-- main -->
<g id="node8" class="node"><title>main</title>
<ellipse fill="lightblue" stroke="lightblue" cx="3141" cy="-87" rx="34.8574" ry="18.3848"/>
<text text-anchor="middle" x="3141" y="-83.4" font-family="Times Roman,serif" font-size="14.00">main</text>
</g>
<!-- nmap_main(int, char**)&#45;&gt;main -->
<g id="edge14" class="edge"><title>nmap_main(int, char**)&#45;&gt;main</title>
<path fill="none" stroke="black" d="M2877.62,-87C2952.27,-87 3042.23,-87 3095.34,-87"/>
<polygon fill="black" stroke="black" points="3095.46,-90.5001 3105.46,-87 3095.46,-83.5001 3095.46,-90.5001"/>
<text text-anchor="middle" x="2910" y="-92.4" font-family="Times Roman,serif" font-size="14.00">270</text>
</g>
<!-- safe_malloc -->
<g id="node10" class="node"><title>safe_malloc</title>
<ellipse fill="none" stroke="black" cx="823" cy="-64" rx="67.1751" ry="18.3848"/>
<text text-anchor="middle" x="823" y="-60.4" font-family="Times Roman,serif" font-size="14.00">safe_malloc</text>
</g>
<!-- malloc&#45;&gt;safe_malloc -->
<g id="edge18" class="edge"><title>malloc&#45;&gt;safe_malloc</title>
<path fill="none" stroke="black" d="M334.556,-62.1603C423.902,-62.4968 632.122,-63.2811 745.715,-63.7089"/>
<polygon fill="black" stroke="black" points="745.723,-67.2089 755.736,-63.7467 745.749,-60.2089 745.723,-67.2089"/>
<text text-anchor="middle" x="470" y="-67.4" font-family="Times Roman,serif" font-size="14.00">43</text>
</g>
<!-- nss_parse_service_list -->
<g id="node11" class="node"><title>nss_parse_service_list</title>
<ellipse fill="none" stroke="black" cx="620" cy="-18" rx="118.087" ry="18.3848"/>
<text text-anchor="middle" x="620" y="-14.4" font-family="Times Roman,serif" font-size="14.00">nss_parse_service_list</text>
</g>
<!-- malloc&#45;&gt;nss_parse_service_list -->
<g id="edge22" class="edge"><title>malloc&#45;&gt;nss_parse_service_list</title>
<path fill="none" stroke="black" d="M327.151,-51.7972C360.118,-42.7216 410.949,-29.9875 456,-24 467.694,-22.4458 479.896,-21.2374 492.135,-20.3036"/>
<polygon fill="black" stroke="black" points="492.684,-23.7737 502.415,-19.5822 492.194,-16.7909 492.684,-23.7737"/>
<text text-anchor="middle" x="470" y="-29.4" font-family="Times Roman,serif" font-size="14.00">160</text>
</g>
<!-- safe_malloc&#45;&gt;nmap_main(int, char**) -->
<g id="edge20" class="edge"><title>safe_malloc&#45;&gt;nmap_main(int, char**)</title>
<path fill="none" stroke="black" d="M890.089,-64C976.368,-64 1130.85,-64 1263,-64 1263,-64 1263,-64 2285,-64 2402.03,-64 2535.4,-71.3265 2629.39,-77.7094"/>
<polygon fill="black" stroke="black" points="2629.28,-81.2105 2639.5,-78.4029 2629.76,-74.2269 2629.28,-81.2105"/>
<text text-anchor="middle" x="1586" y="-69.4" font-family="Times Roman,serif" font-size="14.00">43</text>
</g>
<!-- __nss_database_lookup -->
<g id="node12" class="node"><title>__nss_database_lookup</title>
<ellipse fill="none" stroke="black" cx="1033" cy="-18" rx="123.951" ry="18.3848"/>
<text text-anchor="middle" x="1033" y="-14.4" font-family="Times Roman,serif" font-size="14.00">__nss_database_lookup</text>
</g>
<!-- nss_parse_service_list&#45;&gt;__nss_database_lookup -->
<g id="edge24" class="edge"><title>nss_parse_service_list&#45;&gt;__nss_database_lookup</title>
<path fill="none" stroke="black" d="M738.073,-18C788.023,-18 846.484,-18 898.124,-18"/>
<polygon fill="black" stroke="black" points="898.356,-21.5001 908.356,-18 898.356,-14.5001 898.356,-21.5001"/>
<text text-anchor="middle" x="823" y="-23.4" font-family="Times Roman,serif" font-size="14.00">160</text>
</g>
<!-- &lt;undefined 4&gt; -->
<g id="node13" class="node"><title>&lt;undefined 4&gt;</title>
<ellipse fill="none" stroke="black" cx="1461" cy="-18" rx="85.7684" ry="18.3848"/>
<text text-anchor="middle" x="1461" y="-14.4" font-family="Times Roman,serif" font-size="14.00">&lt;undefined 4&gt;</text>
</g>
<!-- __nss_database_lookup&#45;&gt;&lt;undefined 4&gt; -->
<g id="edge26" class="edge"><title>__nss_database_lookup&#45;&gt;&lt;undefined 4&gt;</title>
<path fill="none" stroke="black" d="M1157.66,-18C1223.58,-18 1303.29,-18 1364.45,-18"/>
<polygon fill="black" stroke="black" points="1364.49,-21.5001 1374.49,-18 1364.49,-14.5001 1364.49,-21.5001"/>
<text text-anchor="middle" x="1263" y="-23.4" font-family="Times Roman,serif" font-size="14.00">160</text>
</g>
<!-- &lt;undefined 5&gt; -->
<g id="node14" class="node"><title>&lt;undefined 5&gt;</title>
<ellipse fill="none" stroke="black" cx="1782" cy="-18" rx="85.7684" ry="18.3848"/>
<text text-anchor="middle" x="1782" y="-14.4" font-family="Times Roman,serif" font-size="14.00">&lt;undefined 5&gt;</text>
</g>
<!-- &lt;undefined 4&gt;&#45;&gt;&lt;undefined 5&gt; -->
<g id="edge28" class="edge"><title>&lt;undefined 4&gt;&#45;&gt;&lt;undefined 5&gt;</title>
<path fill="none" stroke="black" d="M1547.87,-18C1590.33,-18 1641.57,-18 1685.27,-18"/>
<polygon fill="black" stroke="black" points="1685.34,-21.5001 1695.34,-18 1685.34,-14.5001 1685.34,-21.5001"/>
<text text-anchor="middle" x="1586" y="-23.4" font-family="Times Roman,serif" font-size="14.00">160</text>
</g>
<!-- getpwuid_r@@GLIBC_2.1.2 -->
<g id="node15" class="node"><title>getpwuid_r@@GLIBC_2.1.2</title>
<ellipse fill="none" stroke="black" cx="2285" cy="-18" rx="147.992" ry="18.3848"/>
<text text-anchor="middle" x="2285" y="-14.4" font-family="Times Roman,serif" font-size="14.00">getpwuid_r@@GLIBC_2.1.2</text>
</g>
<!-- &lt;undefined 5&gt;&#45;&gt;getpwuid_r@@GLIBC_2.1.2 -->
<g id="edge30" class="edge"><title>&lt;undefined 5&gt;&#45;&gt;getpwuid_r@@GLIBC_2.1.2</title>
<path fill="none" stroke="black" d="M1868.76,-18C1939.45,-18 2041.15,-18 2126.32,-18"/>
<polygon fill="black" stroke="black" points="2126.36,-21.5001 2136.36,-18 2126.36,-14.5001 2126.36,-21.5001"/>
<text text-anchor="middle" x="1978" y="-23.4" font-family="Times Roman,serif" font-size="14.00">160</text>
</g>
<!-- getpwuid -->
<g id="node16" class="node"><title>getpwuid</title>
<ellipse fill="none" stroke="black" cx="2751" cy="-18" rx="56.7776" ry="18.3848"/>
<text text-anchor="middle" x="2751" y="-14.4" font-family="Times Roman,serif" font-size="14.00">getpwuid</text>
</g>
<!-- getpwuid_r@@GLIBC_2.1.2&#45;&gt;getpwuid -->
<g id="edge32" class="edge"><title>getpwuid_r@@GLIBC_2.1.2&#45;&gt;getpwuid</title>
<path fill="none" stroke="black" d="M2433.73,-18C2517.54,-18 2618.17,-18 2683.29,-18"/>
<polygon fill="black" stroke="black" points="2683.43,-21.5001 2693.43,-18 2683.43,-14.5001 2683.43,-21.5001"/>
<text text-anchor="middle" x="2592" y="-23.4" font-family="Times Roman,serif" font-size="14.00">160</text>
</g>
<!-- nmap_fetchfile(char*, int, char const*) -->
<g id="node17" class="node"><title>nmap_fetchfile(char*, int, char const*)</title>
<ellipse fill="none" stroke="black" cx="3141" cy="-18" rx="198.197" ry="18.3848"/>
<text text-anchor="middle" x="3141" y="-14.4" font-family="Times Roman,serif" font-size="14.00">nmap_fetchfile(char*, int, char const*)</text>
</g>
<!-- getpwuid&#45;&gt;nmap_fetchfile(char*, int, char const*) -->
<g id="edge34" class="edge"><title>getpwuid&#45;&gt;nmap_fetchfile(char*, int, char const*)</title>
<path fill="none" stroke="black" d="M2808.55,-18C2842.1,-18 2886.71,-18 2932.32,-18"/>
<polygon fill="black" stroke="black" points="2932.38,-21.5001 2942.38,-18 2932.38,-14.5001 2932.38,-21.5001"/>
<text text-anchor="middle" x="2910" y="-23.4" font-family="Times Roman,serif" font-size="14.00">160</text>
</g>
<!-- NmapOps::Initialize() -->
<g id="node18" class="node"><title>NmapOps::Initialize()</title>
<ellipse fill="none" stroke="black" cx="3518" cy="-18" rx="113.844" ry="18.3848"/>
<text text-anchor="middle" x="3518" y="-14.4" font-family="Times Roman,serif" font-size="14.00">NmapOps::Initialize()</text>
</g>
<!-- nmap_fetchfile(char*, int, char const*)&#45;&gt;NmapOps::Initialize() -->
<g id="edge36" class="edge"><title>nmap_fetchfile(char*, int, char const*)&#45;&gt;NmapOps::Initialize()</title>
<path fill="none" stroke="black" d="M3339.71,-18C3358.08,-18 3376.32,-18 3393.73,-18"/>
<polygon fill="black" stroke="black" points="3393.87,-21.5001 3403.87,-18 3393.87,-14.5001 3393.87,-21.5001"/>
<text text-anchor="middle" x="3372" y="-23.4" font-family="Times Roman,serif" font-size="14.00">160</text>
</g>
<!-- NmapOps::NmapOps() -->
<g id="node19" class="node"><title>NmapOps::NmapOps()</title>
<ellipse fill="none" stroke="black" cx="3815" cy="-18" rx="118.794" ry="18.3848"/>
<text text-anchor="middle" x="3815" y="-14.4" font-family="Times Roman,serif" font-size="14.00">NmapOps::NmapOps()</text>
</g>
<!-- NmapOps::Initialize()&#45;&gt;NmapOps::NmapOps() -->
<g id="edge38" class="edge"><title>NmapOps::Initialize()&#45;&gt;NmapOps::NmapOps()</title>
<path fill="none" stroke="black" d="M3632.4,-18C3649.75,-18 3667.76,-18 3685.4,-18"/>
<polygon fill="black" stroke="black" points="3685.74,-21.5001 3695.74,-18 3685.74,-14.5001 3685.74,-21.5001"/>
<text text-anchor="middle" x="3664" y="-23.4" font-family="Times Roman,serif" font-size="14.00">160</text>
</g>
<!-- &lt;undefined 6&gt; -->
<g id="node20" class="node"><title>&lt;undefined 6&gt;</title>
<ellipse fill="none" stroke="black" cx="4085" cy="-18" rx="85.7684" ry="18.3848"/>
<text text-anchor="middle" x="4085" y="-14.4" font-family="Times Roman,serif" font-size="14.00">&lt;undefined 6&gt;</text>
</g>
<!-- NmapOps::NmapOps()&#45;&gt;&lt;undefined 6&gt; -->
<g id="edge40" class="edge"><title>NmapOps::NmapOps()&#45;&gt;&lt;undefined 6&gt;</title>
<path fill="none" stroke="black" d="M3934.21,-18C3952.28,-18 3970.73,-18 3988.24,-18"/>
<polygon fill="black" stroke="black" points="3988.44,-21.5001 3998.44,-18 3988.44,-14.5001 3988.44,-21.5001"/>
<text text-anchor="middle" x="3966" y="-23.4" font-family="Times Roman,serif" font-size="14.00">160</text>
</g>
<!-- &lt;undefined 7&gt; -->
<g id="node21" class="node"><title>&lt;undefined 7&gt;</title>
<ellipse fill="lightblue" stroke="lightblue" cx="4323" cy="-18" rx="85.7684" ry="18.3848"/>
<text text-anchor="middle" x="4323" y="-14.4" font-family="Times Roman,serif" font-size="14.00">&lt;undefined 7&gt;</text>
</g>
<!-- &lt;undefined 6&gt;&#45;&gt;&lt;undefined 7&gt; -->
<g id="edge42" class="edge"><title>&lt;undefined 6&gt;&#45;&gt;&lt;undefined 7&gt;</title>
<path fill="none" stroke="black" d="M4171.6,-18C4189.43,-18 4208.31,-18 4226.47,-18"/>
<polygon fill="black" stroke="black" points="4226.47,-21.5001 4236.47,-18 4226.47,-14.5001 4226.47,-21.5001"/>
<text text-anchor="middle" x="4204" y="-23.4" font-family="Times Roman,serif" font-size="14.00">160</text>
</g>
<!-- &lt;undefined 9&gt; -->
<g id="node23" class="node"><title>&lt;undefined 9&gt;</title>
<ellipse fill="none" stroke="black" cx="1033" cy="-110" rx="85.7684" ry="18.3848"/>
<text text-anchor="middle" x="1033" y="-106.4" font-family="Times Roman,serif" font-size="14.00">&lt;undefined 9&gt;</text>
</g>
<!-- &lt;undefined 8&gt;&#45;&gt;&lt;undefined 9&gt; -->
<g id="edge46" class="edge"><title>&lt;undefined 8&gt;&#45;&gt;&lt;undefined 9&gt;</title>
<path fill="none" stroke="black" d="M706.578,-110C773.648,-110 866.547,-110 936.095,-110"/>
<polygon fill="black" stroke="black" points="936.181,-113.5 946.181,-110 936.181,-106.5 936.181,-113.5"/>
<text text-anchor="middle" x="823" y="-115.4" font-family="Times Roman,serif" font-size="14.00">186</text>
</g>
<!-- &lt;undefined 10&gt; -->
<g id="node24" class="node"><title>&lt;undefined 10&gt;</title>
<ellipse fill="none" stroke="black" cx="1461" cy="-110" rx="92.1303" ry="18.3848"/>
<text text-anchor="middle" x="1461" y="-106.4" font-family="Times Roman,serif" font-size="14.00">&lt;undefined 10&gt;</text>
</g>
<!-- &lt;undefined 9&gt;&#45;&gt;&lt;undefined 10&gt; -->
<g id="edge48" class="edge"><title>&lt;undefined 9&gt;&#45;&gt;&lt;undefined 10&gt;</title>
<path fill="none" stroke="black" d="M1119.61,-110C1188.55,-110 1285.22,-110 1358.1,-110"/>
<polygon fill="black" stroke="black" points="1358.22,-113.5 1368.22,-110 1358.22,-106.5 1358.22,-113.5"/>
<text text-anchor="middle" x="1263" y="-115.4" font-family="Times Roman,serif" font-size="14.00">186</text>
</g>
<!-- &lt;undefined 10&gt;&#45;&gt;nmap_mass_rdns(Target**, int) -->
<g id="edge50" class="edge"><title>&lt;undefined 10&gt;&#45;&gt;nmap_mass_rdns(Target**, int)</title>
<path fill="none" stroke="black" d="M1553.85,-110C1571.03,-110 1589.49,-110 1608.18,-110"/>
<polygon fill="black" stroke="black" points="1608.28,-113.5 1618.28,-110 1608.28,-106.5 1608.28,-113.5"/>
<text text-anchor="middle" x="1586" y="-115.4" font-family="Times Roman,serif" font-size="14.00">186</text>
</g>
</g>
</svg>
